<?xml version="1.0" standalone="no"?>
<!DOCTYPE svg PUBLIC "-//W3C//DTD SVG 1.1//EN" "http://www.w3.org/Graphics/SVG/1.1/DTD/svg11.dtd" >
<svg xmlns="http://www.w3.org/2000/svg">
<metadata>Generated by IcoMoon</metadata>
<defs>
<font id="icomoon" horiz-adv-x="1024">
<font-face units-per-em="1024" ascent="960" descent="-64" />
<missing-glyph horiz-adv-x="1024" />
<glyph unicode="&#x20;" horiz-adv-x="512" d="" />
<glyph unicode="&#xe900;" glyph-name="uniE900" d="M83.2 595.2v-556.8h851.2v556.8h-851.2zM83.2 684.8h851.2c44.8 0 83.2-38.4 83.2-83.2v-556.8c0-44.8-38.4-83.2-83.2-83.2h-851.2c-44.8 0-83.2 38.4-83.2 83.2v550.4c0 51.2 38.4 89.6 83.2 89.6v0zM256 467.2h512c25.6 0 44.8-19.2 44.8-44.8 0-19.2-19.2-38.4-44.8-38.4h-512c-25.6 0-44.8 19.2-44.8 44.8s19.2 38.4 44.8 38.4v0zM256 768c-25.6 0-44.8 19.2-44.8 44.8 0 70.4 57.6 128 128 128h339.2c70.4 0 128-57.6 128-128 6.4-25.6-12.8-44.8-38.4-44.8s-44.8 19.2-44.8 44.8c0 25.6-19.2 44.8-44.8 44.8h-339.2c-25.6 0-44.8-19.2-44.8-44.8 6.4-25.6-12.8-44.8-38.4-44.8v0z" />
<glyph unicode="&#xe901;" glyph-name="guanbi" d="M512 960c-281.6 0-512-230.4-512-512s230.4-512 512-512 512 230.4 512 512-230.4 512-512 512zM761.6 243.2c12.8-12.8 12.8-38.4 0-51.2-6.4 0-12.8-6.4-25.6-6.4-6.4 0-19.2 6.4-25.6 12.8l-198.4 204.8-198.4-198.4c-6.4-6.4-12.8-12.8-25.6-12.8s-19.2 0-25.6 6.4c-6.4 6.4-12.8 12.8-12.8 25.6s6.4 19.2 12.8 25.6l204.8 198.4-204.8 198.4c-6.4 12.8-12.8 19.2-12.8 25.6s6.4 19.2 12.8 25.6c6.4 6.4 12.8 12.8 25.6 12.8s19.2-6.4 25.6-12.8l198.4-204.8 198.4 198.4c6.4 6.4 12.8 12.8 25.6 12.8 6.4 0 19.2-6.4 25.6-12.8 12.8-12.8 12.8-38.4 0-51.2l-204.8-198.4 204.8-198.4z" />
<glyph unicode="&#xe902;" glyph-name="sousuo" d="M992-64c-12.8 0-19.2 6.4-25.6 12.8l-236.8 230.4c-12.8 12.8-12.8 38.4 0 51.2s38.4 12.8 51.2 0l230.4-230.4c12.8-12.8 12.8-38.4 0-51.2 0 0 0 0 0 0-6.4-12.8-12.8-12.8-19.2-12.8zM454.4 44.8c-256 0-454.4 204.8-454.4 460.8s204.8 454.4 460.8 454.4 454.4-204.8 454.4-460.8c0-64-12.8-134.4-44.8-192-6.4-19.2-32-25.6-51.2-19.2s-25.6 32-19.2 51.2c32 51.2 44.8 108.8 44.8 166.4 0 211.2-172.8 384-384 384s-384-172.8-384-384 172.8-384 384-384c0 0 0 0 0 0 102.4 0 198.4 38.4 268.8 115.2 12.8 12.8 38.4 12.8 51.2 0s12.8-38.4 0-51.2c-83.2-89.6-204.8-140.8-326.4-140.8v0zM454.4 396.8c-38.4 0-76.8 12.8-108.8 38.4-6.4 12.8-19.2 12.8-32 6.4v0c-25.6-6.4-32-38.4-12.8-57.6 44.8-38.4 89.6-57.6 153.6-57.6 76.8 0 121.6 25.6 160 57.6 19.2 19.2 12.8 57.6-12.8 64-12.8 0-25.6 0-32-6.4-32-25.6-70.4-44.8-115.2-44.8z" />
<glyph unicode="&#xe903;" glyph-name="uniE903" d="M512 787.2c-19.2 0-32-19.2-32-32v-352c0-6.4 6.4-19.2 6.4-25.6 6.4-6.4 19.2-6.4 25.6-6.4h211.2c19.2 0 32 12.8 32 32s-12.8 32-32 32h-179.2v320c0 6.4-6.4 19.2-6.4 25.6-6.4 0-19.2 6.4-25.6 6.4v0zM992 480c-6.4 0-19.2-6.4-25.6-6.4-6.4-6.4-6.4-19.2-6.4-25.6 0-217.6-153.6-396.8-364.8-441.6-211.2-38.4-422.4 76.8-499.2 275.2-83.2 198.4-6.4 428.8 172.8 544s416 89.6 563.2-64h-44.8c-19.2 0-32-12.8-32-32s12.8-32 32-32h128c6.4 0 19.2 6.4 25.6 6.4 6.4 6.4 6.4 12.8 6.4 25.6v128c0 12.8-6.4 19.2-19.2 25.6s-19.2 6.4-32 0c-12.8-6.4-19.2-19.2-19.2-25.6v-51.2c-166.4 172.8-435.2 204.8-640 70.4-211.2-134.4-294.4-390.4-198.4-620.8 89.6-230.4 332.8-358.4 569.6-313.6 243.2 44.8 416 256 416 505.6 0 6.4-6.4 19.2-6.4 25.6-6.4 6.4-19.2 6.4-25.6 6.4v0z" />
<glyph unicode="&#xe904;" glyph-name="43" d="M940.218 517.818h-41.891c-18.618 0-41.891 13.964-46.545 32.582l-23.273 60.509c-9.309 18.618-4.655 41.891 9.309 55.855l32.582 32.582c13.964 13.964 13.964 37.236 0 51.2l-51.2 51.2c-13.964 13.964-37.236 13.964-51.2 0l-32.582-27.927c-13.964-13.964-37.236-18.618-55.855-9.309l-60.509 23.273c-18.618 4.655-32.582 27.927-32.582 46.545v41.891c0 18.618-13.964 37.236-37.236 37.236h-69.818c-23.273 0-37.236-13.964-37.236-37.236v-41.891c0-18.618-13.964-41.891-32.582-46.545l-65.164-23.273c-13.964-9.309-41.891-4.655-55.855 9.309l-27.927 27.927c-13.964 13.964-37.236 13.964-51.2 0l-51.2-51.2c-13.964-13.964-13.964-37.236 0-51.2l27.927-27.927c13.964-13.964 18.618-37.236 9.309-55.855l-23.273-60.509c-4.655-18.618-27.927-32.582-46.545-32.582h-41.891c-23.273-4.655-37.236-18.618-37.236-37.236v-69.818c0-18.618 13.964-37.236 37.236-37.236h41.891c18.618 0 41.891-13.964 46.545-32.582l23.273-60.509c9.309-18.618 4.655-41.891-9.309-55.855l-32.582-32.582c-13.964-13.964-13.964-37.236 0-51.2l51.2-51.2c13.964-13.964 37.236-13.964 51.2 0l32.582 27.927c13.964 13.964 37.236 18.618 55.855 9.309l60.509-23.273c18.618-4.655 32.582-27.927 32.582-46.545v-41.891c0-18.618 13.964-37.236 37.236-37.236h69.818c18.618 0 37.236 13.964 37.236 37.236v41.891c0 18.618 13.964 41.891 32.582 46.545l60.509 23.273c18.618 9.309 41.891 4.655 55.855-9.309l32.582-32.582c13.964-13.964 37.236-13.964 51.2 0l51.2 51.2c13.964 13.964 13.964 37.236 0 51.2l-27.927 32.582c-13.964 13.964-18.618 37.236-9.309 55.855l23.273 60.509c4.655 18.618 27.927 32.582 46.545 32.582h41.891c18.618 0 37.236 13.964 37.236 37.236v69.818c0 23.273-13.964 37.236-37.236 37.236v0zM688.873 448c0-97.745-79.127-176.873-176.873-176.873s-176.873 79.127-176.873 176.873c0 97.745 79.127 176.873 176.873 176.873s176.873-79.127 176.873-176.873v0z" />
<glyph unicode="&#xe905;" glyph-name="44" d="M144.291 10.473c-27.927 0-51.2 18.618-51.2 46.545v735.418c0 27.927 23.273 46.545 51.2 46.545h167.564v-65.164h-153.6v-698.182h707.491v698.182h-153.6v65.164h167.564c27.927 0 51.2-18.618 51.2-46.545v-730.764c0-27.927-23.273-46.545-51.2-46.545h-735.418v-4.655zM684.218 885.527v-97.745h-339.782v97.745h339.782zM749.382 303.709c9.309 0 13.964-9.309 13.964-13.964v-83.782c0-9.309-4.655-13.964-13.964-13.964h-470.109c-9.309 0-13.964 4.655-13.964 13.964v83.782c0 9.309 4.655 13.964 13.964 13.964h470.109zM279.273 485.236h474.764c9.309 0 13.964-4.655 13.964-13.964v-88.436c0-9.309-4.655-13.964-13.964-13.964h-474.764c-9.309 0-13.964 9.309-13.964 13.964v88.436c-4.655 9.309 4.655 13.964 13.964 13.964v0zM763.345 559.709c0-9.309-4.655-13.964-13.964-13.964h-474.764c-4.655-4.655-13.964 4.655-13.964 13.964v83.782c0 9.309 4.655 13.964 13.964 13.964h474.764c9.309 0 13.964-4.655 13.964-13.964v-83.782z" />
<glyph unicode="&#xe906;" glyph-name="uniE906" horiz-adv-x="1021" d="M923.52 187.52h-102.4v285.44c0 138.88-80 295.040-195.84 295.040v100.48c184.96 0 298.24-205.44 298.24-395.52zM199.040 187.52h-101.76v285.44c0 192 113.28 395.52 293.12 395.52v-100.48c-114.56 0-192-154.24-192-293.12zM459.52 960h101.76v-305.92h-101.76zM-1.28 187.52h1024v-101.76h-1024zM357.12 14.080h305.92v-76.8h-305.92v76.8z" />
<glyph unicode="&#xe907;" glyph-name="46" d="M195.491 238.545c0 0 107.055 0 107.055-107.055 0 0-4.655-102.4-107.055-102.4 0 0-102.4 4.655-102.4 107.055 0 0 4.655 93.091 102.4 102.4v0zM93.091 564.364c0 0 530.618-4.655 535.273-535.273h-144.291c0 0-60.509 386.327-390.982 390.982v144.291zM93.091 866.909c0 0 768 23.273 837.818-837.818h-139.636c0 0-27.927 646.982-698.182 698.182v139.636z" />
<glyph unicode="&#xe908;" glyph-name="uniE908" horiz-adv-x="1065" d="M561.269 306.85h-3.329c-7.5-1.058-16.163-1.662-24.967-1.662s-17.468 0.604-25.951 1.772l0.983-0.111h9.987c-16.68 0.825-32.375 3.687-47.275 8.35l1.335-0.36 8.655-3.995c-15.501 6.806-28.862 14.828-41.047 24.292l0.433-0.323 7.324-5.992c-12.006 9.455-22.504 19.953-31.656 31.561l-0.302 0.398 5.992-7.324c-8.574 12.276-15.984 26.343-21.547 41.308l-0.424 1.303v-8.655c-5.729 13.304-10.151 28.777-12.526 44.916l-0.124 1.024v-9.987c-1.015 7.399-1.595 15.949-1.595 24.635s0.579 17.236 1.702 25.614l-0.107-0.98v-9.987c2.436 17.386 6.863 33.094 13.115 47.841l-0.465-1.235v-8.655c6.806 15.501 14.828 28.862 24.292 41.047l-0.323-0.433-5.992-7.324c9.455 12.006 19.953 22.504 31.561 31.656l0.398 0.302-7.324-5.992c11.15 8.078 23.862 15.225 37.37 20.846l1.247 0.46h-8.655c13.304 5.729 28.777 10.151 44.916 12.526l1.024 0.124h-9.987c7.399 1.015 15.949 1.595 24.635 1.595s17.236-0.579 25.614-1.702l-0.98 0.107h-9.987c17.386-2.436 33.094-6.863 47.841-13.115l-1.235 0.465h-9.321c15.501-6.806 28.862-14.828 41.047-24.292l-0.433 0.323-7.324 5.992c12.006-9.455 22.504-19.953 31.656-31.561l0.302-0.398-5.992 7.324c9.17-11.748 17.195-25.112 23.494-39.407l0.474-1.207-1.997 11.319c5.729-13.304 10.151-28.777 12.526-44.916l0.124-1.024v9.987c0.995-7.299 1.563-15.734 1.563-24.302s-0.568-17.003-1.668-25.27l0.105 0.969v9.987c-0.627-2.696-0.987-5.792-0.987-8.971 0-7.204 1.845-13.977 5.089-19.872l-0.108 0.214c6.58-11.167 18.544-18.541 32.231-18.541 7.024 0 13.595 1.942 19.204 5.319l-0.168-0.094c8.536 4.845 14.804 12.851 17.256 22.388l0.054 0.249c1.681 10.18 2.642 21.911 2.642 33.867 0 120.609-97.773 218.382-218.382 218.382-21.578 0-42.425-3.129-62.111-8.959l1.545 0.392c-69.463-20.257-123.9-71.629-147.98-137.607l-0.493-1.545c-7.872-21.589-12.425-46.511-12.425-72.497 0-47.781 15.392-91.967 41.488-127.87l-0.434 0.627c39.962-55.627 104.474-91.433 177.349-91.433 3.426 0 6.833 0.079 10.22 0.236l-0.48-0.018c14.443 0.842 27.899 2.74 40.977 5.642l-1.695-0.316c15.848 4.796 27.187 19.27 27.187 36.392 0 3.394-0.445 6.683-1.281 9.813l0.060-0.265c-5.025 15.89-19.637 27.208-36.893 27.208-3.452 0-6.799-0.453-9.983-1.303l0.27 0.061zM383.501-64l-22.637 7.99c-64.767 22.38-120.727 54.518-169.269 95.214l0.821-0.67-18.642 15.313 5.992 23.303c4.353 15.263 6.857 32.793 6.857 50.908 0 10.231-0.798 20.275-2.337 30.074l0.14-1.087c-12.472 77.962-70.321 139.614-145.166 157.53l-1.31 0.265-23.303 6.658-4.661 23.303c-6.351 30.866-9.987 66.339-9.987 102.662 0 0.189 0 0.378 0 0.567v-0.030c-0.003 0.643-0.004 1.404-0.004 2.165 0 30.984 2.666 61.346 7.78 90.869l-0.452-3.151 3.995 23.969 23.969 5.992c27.377 7.356 51.214 19.749 71.603 36.237l-0.362-0.283c45.38 35.539 74.271 90.333 74.271 151.874 0 19.193-2.81 37.729-8.041 55.22l0.35-1.362-6.658 23.303 15.313 14.648c47.034 41.98 102.255 76.012 162.805 99.303l3.645 1.232 22.637 7.99 16.645-17.311c18.403-18.674 40.575-33.578 65.289-43.486l1.291-0.457c20.968-8.536 45.294-13.49 70.778-13.49 55.611 0 105.711 23.591 140.84 61.312l0.107 0.116 16.645 17.311 22.637-7.99c64.767-22.38 120.727-54.518 169.269-95.214l-0.821 0.67 18.642-15.313-5.992-23.303c-4.087-14.856-6.436-31.915-6.436-49.522 0-90.616 62.208-166.702 146.248-187.883l1.337-0.285 23.303-5.326 4.661-23.303c6.353-30.87 9.99-66.349 9.99-102.677 0-0.652-0.001-1.303-0.004-1.954v0.101c0.003-0.643 0.004-1.404 0.004-2.165 0-30.984-2.666-61.346-7.78-90.869l0.452 3.151-3.995-23.969-23.303-5.992c-82.134-23.695-141.19-98.192-141.19-186.483 0-19.681 2.935-38.678 8.39-56.574l-0.36 1.372 6.658-23.303-17.977-15.313c-47.074-41.483-102.301-75.083-162.787-97.987l-3.663-1.217-22.637-8.655-16.645 17.311c-35.135 36.195-84.245 58.656-138.601 58.656-56.286 0-106.947-24.085-142.24-62.51l-0.127-0.14-16.645-17.311zM257.664 81.81c30.717-23.46 65.847-43.606 103.492-58.836l3.036-1.085c46.793 41.685 108.824 67.155 176.804 67.155 65.473 0 125.428-23.626 171.804-62.818l-0.394 0.324c39.922 17.296 74.35 38.27 105.404 63.265l-0.874-0.68c-3.405 15.975-5.356 34.33-5.356 53.14 0 114.611 72.398 212.313 173.956 249.867l1.844 0.597c1.712 15.114 2.688 32.632 2.688 50.379 0 1.717-0.009 3.431-0.027 5.143l0.002-0.261c0.001 0.329 0.001 0.719 0.001 1.109 0 23.097-1.695 45.798-4.966 67.986l0.305-2.515c-106.631 36.394-181.95 135.702-181.95 252.602 0 16.615 1.521 32.874 4.433 48.646l-0.251-1.639c-30.717 23.46-65.847 43.606-103.492 58.836l-3.036 1.085c-31.878-28.047-70.936-48.709-114.042-58.896l-1.807-0.36c-18.359-4.517-39.437-7.108-61.119-7.108-35.036 0-68.493 6.766-99.134 19.062l1.793-0.635c-28.33 11.090-52.772 25.688-74.337 43.627l0.433-0.35c-39.922-17.296-74.35-38.27-105.404-63.265l0.874 0.68c3.479-16.144 5.471-34.692 5.471-53.704 0-28.368-4.435-55.701-12.651-81.341l0.522 1.885c-16.136-54.032-47.337-99.453-88.703-132.76l-0.514-0.4c-21.333-17.153-46.014-31.332-72.732-41.342l-1.837-0.603c-1.894-14.952-3.097-32.501-3.326-50.284l-0.003-0.317c0.183-23.648 2.113-46.694 5.667-69.199l-0.341 2.619c43.16-14.917 79.83-39.145 109.049-70.421l0.142-0.154c34.824-38.27 58.72-87.056 66.414-141.062l0.166-1.419c2.218-12.91 3.485-27.779 3.485-42.944s-1.268-30.034-3.702-44.507l0.217 1.563z" />
<glyph unicode="&#xe909;" glyph-name="uniE909" horiz-adv-x="1050" d="M486.088 178.716h71.503v72.159h-71.503zM532.008 717.284c-1.595 0.055-3.47 0.086-5.353 0.086-37.826 0-72.707-12.604-100.674-33.842l0.412 0.3c-36.751-26.229-60.426-68.726-60.426-116.753 0-5.087 0.266-10.113 0.784-15.063l-0.052 0.618h65.599q0 111.518 97.086 114.142c1.412 0.085 3.064 0.134 4.726 0.134 46.011 0 83.311-37.299 83.311-83.311 0-1.663-0.049-3.314-0.145-4.952l0.011 0.226q5.904-41.327-54.447-91.839l-5.904-5.248c-23.378-19.799-42.531-43.771-56.467-70.866l-0.604-1.293c-7.76-18.238-12.27-39.453-12.27-61.722 0-6.683 0.406-13.272 1.196-19.742l-0.077 0.777h65.599c-0.7 5.091-1.099 10.973-1.099 16.949 0 48.751 26.59 91.291 66.058 113.91l0.641 0.338c37.771 27.256 62.805 70.137 65.58 118.974l0.019 0.416c-1.89 76.425-64.293 137.657-140.997 137.657-4.402 0-8.757-0.202-13.057-0.596l0.552 0.041zM524.792 19.311c-1.572-0.021-3.428-0.032-5.288-0.032-237.773 0-430.914 191.094-434.222 428.081l-0.003 0.312c3.681 237.373 196.97 428.386 434.872 428.386 1.632 0 3.262-0.009 4.89-0.027l-0.249 0.002c1.572 0.021 3.428 0.032 5.288 0.032 237.773 0 430.914-191.094 434.222-428.081l0.003-0.312c-3.311-237.299-196.452-428.393-434.226-428.393-1.859 0-3.715 0.012-5.569 0.035l0.281-0.003zM524.792 960c-1.767 0.022-3.855 0.034-5.945 0.034-284.279 0-515.164-228.609-518.843-512.015l-0.004-0.347c3.683-283.753 234.567-512.362 518.847-512.362 2.090 0 4.178 0.012 6.262 0.037l-0.318-0.003c1.767-0.022 3.855-0.034 5.945-0.034 284.279 0 515.164 228.609 518.843 512.015l0.004 0.347c-3.683 283.753-234.567 512.362-518.847 512.362-2.090 0-4.178-0.012-6.262-0.037l0.318 0.003z" />
<glyph unicode="&#xe90a;" glyph-name="uniE90A" d="M972.8 812.8h-921.6c-25.6 0-51.2 25.6-51.2 51.2v0c0 32 25.6 51.2 51.2 51.2h921.6c25.6 0 51.2-19.2 51.2-51.2v0c0-25.6-25.6-51.2-51.2-51.2zM870.4-19.2h-819.2c-25.6 0-51.2 19.2-51.2 51.2v0c0 25.6 25.6 51.2 51.2 51.2h819.2c25.6 0 51.2-25.6 51.2-51.2v0c0-32-19.2-51.2-51.2-51.2zM569.6 358.4h-518.4c-25.6 0-51.2 25.6-51.2 51.2v0c0 25.6 25.6 51.2 51.2 51.2h518.4c25.6 0 51.2-25.6 51.2-51.2v0c0-25.6-19.2-51.2-51.2-51.2z" />
<glyph unicode="&#xe90b;" glyph-name="uniE90B" horiz-adv-x="931" d="M833.28 956.16l-442.88-135.68c-55.453-17.767-95.262-67.978-97.274-127.77l-0.006-0.23v-467.2c-19.894 9.86-43.321 15.629-68.095 15.629-12.623 0-24.895-1.498-36.65-4.325l1.065 0.216c-99.034-6.957-178.531-82.287-191.877-178.751l-0.123-1.089c0-84.48 85.12-136.32 192-121.6 95.814 7.235 172.102 81.983 181.692 176.447l0.068 0.833v399.36c0 37.76 44.8 53.76 44.8 53.76l392.32 125.44s40.96 12.8 40.96-25.6v-320c-23.133 10.66-50.197 16.876-78.712 16.876-11.535 0-22.832-1.017-33.807-2.967l1.159 0.171c-98.755-4.58-178.784-79.109-191.882-174.947l-0.118-1.053c0-84.48 85.12-138.24 192-128 98.755 4.58 178.784 79.109 191.882 174.947l0.118 1.053v654.72c0.056 1.053 0.088 2.286 0.088 3.527 0 39.234-31.806 71.040-71.040 71.040-9.241 0-18.070-1.764-26.168-4.975l0.481 0.168z" />
<glyph unicode="&#xe90c;" glyph-name="3" d="M512 409.6c-153.6 0-275.2 121.6-275.2 275.2s121.6 275.2 275.2 275.2 275.2-121.6 275.2-275.2-128-275.2-275.2-275.2zM512 889.6c-108.8 0-204.8-89.6-204.8-204.8s89.6-198.4 204.8-198.4 204.8 89.6 204.8 204.8-96 198.4-204.8 198.4zM518.4-64h-480c-19.2 0-38.4 12.8-38.4 38.4 6.4 281.6 230.4 505.6 512 505.6 89.6 0 179.2-25.6 256-70.4 19.2-12.8 25.6-32 12.8-51.2s-32-25.6-51.2-12.8c-64 38.4-140.8 57.6-217.6 57.6-230.4 0-416-172.8-435.2-396.8h441.6c19.2 0 38.4-12.8 38.4-38.4-6.4-12.8-19.2-32-38.4-32zM832 108.8c-83.2 0-147.2 89.6-147.2 192 0 12.8 12.8 25.6 25.6 25.6s25.6-12.8 25.6-25.6c0-76.8 44.8-140.8 96-140.8 57.6 0 96 64 96 140.8 0 12.8 12.8 25.6 25.6 25.6s25.6-12.8 25.6-25.6c0-102.4-64-192-147.2-192zM992 281.6h-326.4c-12.8 0-25.6 12.8-25.6 25.6s12.8 25.6 25.6 25.6h326.4c12.8 0 25.6-12.8 25.6-25.6s-6.4-25.6-25.6-25.6zM953.6-57.6c-12.8 0-25.6 12.8-25.6 25.6 0 76.8-44.8 140.8-96 140.8-57.6 0-96-64-96-140.8 0-12.8-12.8-25.6-25.6-25.6s-25.6 12.8-25.6 25.6c0 108.8 70.4 192 147.2 192s147.2-89.6 147.2-192c0-12.8-12.8-25.6-25.6-25.6zM992-64h-326.4c-12.8 0-25.6 12.8-25.6 25.6s12.8 25.6 25.6 25.6h326.4c12.8 0 25.6-12.8 25.6-25.6s-6.4-25.6-25.6-25.6z" />
<glyph unicode="&#xe90d;" glyph-name="4" d="M859.52 750.080h-808.32c-28.354-0.361-51.2-23.431-51.2-51.836 0-0.001 0-0.003 0-0.004v0-632.96c0-0.001 0-0.003 0-0.004 0-28.405 22.846-51.475 51.166-51.836h808.354c28.354 0.361 51.2 23.431 51.2 51.836 0 0.001 0 0.003 0 0.004v0 632.96c0.003 0.19 0.004 0.415 0.004 0.64 0 28.277-22.923 51.2-51.2 51.2-0.001 0-0.003 0-0.004 0v0zM808.32 647.040v-464l-117.76 141.44c-2.269 2.081-5.305 3.356-8.64 3.356s-6.371-1.275-8.649-3.364l0.009 0.009-136.32-97.92-234.88 229.12c-2.425 2.389-5.755 3.864-9.431 3.864-0.285 0-0.567-0.009-0.848-0.026l0.038 0.002c-4.030-0.365-7.483-2.548-9.57-5.712l-0.030-0.048-179.84-259.2v452.48zM500.48 455.040c0.363 45.674 37.472 82.56 83.198 82.56 45.95 0 83.2-37.25 83.2-83.2s-37.249-83.199-83.197-83.2v0c-45.364 0.345-82.132 36.665-83.198 81.82l-0.002 0.1zM985.6 203.52c-21.208 0-38.4 17.192-38.4 38.4v0 544.64h-799.36c-21.384 0-38.72 17.336-38.72 38.72s17.336 38.72 38.72 38.72v0h837.76c0.025 0 0.055 0 0.085 0 21.208 0 38.4-17.192 38.4-38.4 0-0.901-0.031-1.794-0.092-2.68l0.007 0.12v-585.6c-1.051-20.365-17.82-36.48-38.352-36.48-0.017 0-0.034 0-0.051 0h0.003z" />
<glyph unicode="&#xe90e;" glyph-name="6" d="M448 751.36l-151.68 176.64h-171.52l151.040-176.64zM896 751.36l-154.88 176.64h-170.88l151.040-176.64h171.52zM673.28 751.36l-154.88 176.64h-170.88l151.040-176.64h171.52zM960 928h-167.68l151.040-176.64h80.64v110.080c0.033 0.764 0.051 1.66 0.051 2.56 0 35.346-28.654 64-64 64-0.018 0-0.036 0-0.054 0h0.003zM73.6 928h-9.6c-35.346 0-64-28.654-64-64v0s0 0 0 0v-112.64h224.64l-151.040 176.64zM0 21.76c0-35.346 28.654-64 64-64v0h896c35.346 0 64 28.654 64 64v0s0 0 0 0v685.44h-1024v-685.44zM355.84 505.6c0 37.76 31.36 55.040 64 55.040 0.43 0.009 0.936 0.015 1.444 0.015 12.635 0 24.493-3.329 34.744-9.157l-0.348 0.182 256-145.92c19.201-11.287 31.887-31.842 31.887-55.36s-12.685-44.073-31.587-55.197l-0.3-0.163-256-145.92c-9.365-5.675-20.681-9.033-32.782-9.033-1.076 0-2.145 0.027-3.208 0.079l0.15-0.006c-35.84 0-64 17.92-64 55.040v310.4z" />
<glyph unicode="&#xe90f;" glyph-name="8" horiz-adv-x="1030" d="M491.391 903.326c-5.239 4.461-12.086 7.174-19.566 7.174-0.82 0-1.633-0.033-2.437-0.097l0.106 0.007c-11.262-1.683-20.826-7.862-26.964-16.617l-0.085-0.128-233.781-272.423-150.058 128.805c-6.258 6.785-15.193 11.020-25.117 11.020s-18.859-4.235-25.096-10.997l-0.021-0.023c-5.274-5.805-8.503-13.551-8.503-22.052 0-11.483 5.893-21.59 14.82-27.461l0.124-0.077 167.447-144.906c2.807-2.441 5.98-4.585 9.396-6.319l0.264-0.122c5.708-4.915 13.192-7.908 21.376-7.908 11.504 0 21.626 5.914 27.493 14.867l0.077 0.125 253.102 294.964c6.15 6.456 9.933 15.214 9.933 24.856 0 10.893-4.83 20.659-12.464 27.272l-0.045 0.038zM412.82 410.003h-354.214c-32.367 0-58.606-26.239-58.606-58.606v0-354.858c0-32.367 26.239-58.606 58.606-58.606h354.214c32.367 0 58.606 26.239 58.606 58.606v0 354.858c0 32.367-26.239 58.606-58.606 58.606v0zM418.616 36.468c0-24.898-20.184-45.082-45.082-45.082h-275.643c-24.898 0-45.082 20.184-45.082 45.082v0 275.643c0 24.898 20.184 45.082 45.082 45.082v0h275.643c24.898 0 45.082-20.184 45.082-45.082v0zM971.834 962.576h-354.214c-32.367 0-58.606-26.239-58.606-58.606v-356.79c0-32.367 26.239-58.606 58.606-58.606v0h354.858c32.089 0.364 57.962 26.462 57.962 58.603 0 0.001 0 0.002 0 0.004v0 354.214c0.057 0.964 0.090 2.090 0.090 3.225 0 32.012-25.951 57.962-57.962 57.962-0.258 0-0.516-0.002-0.773-0.005h0.039zM977.63 589.042c0-24.898-20.184-45.082-45.082-45.082v0h-275.643c-24.898 0-45.082 20.184-45.082 45.082v273.067c0 24.898 20.184 45.082 45.082 45.082v0h275.643c24.898 0 45.082-20.184 45.082-45.082v0zM971.834 409.358h-354.214c-32.367 0-58.606-26.239-58.606-58.606v0-354.214c0-32.367 26.239-58.606 58.606-58.606v0h354.858c32.089 0.364 57.962 26.462 57.962 58.603 0 0.001 0 0.002 0 0.004v0 352.282c0 0.001 0 0.002 0 0.004 0 32.012-25.951 57.962-57.962 57.962-0.226 0-0.453-0.001-0.678-0.004h0.034zM977.63 35.824c0-24.898-20.184-45.082-45.082-45.082v0h-275.643c-24.898 0-45.082 20.184-45.082 45.082v0 273.711c0 24.898 20.184 45.082 45.082 45.082v0h275.643c24.898 0 45.082-20.184 45.082-45.082v0z" />
<glyph unicode="&#xe910;" glyph-name="9" horiz-adv-x="877" d="M438.4-64c-241.395 1.799-436.601 197.005-438.399 438.228l-0.001 0.172c0 242.122 196.278 438.4 438.4 438.4s438.4-196.278 438.4-438.4v0c-1.799-241.395-197.005-436.601-438.228-438.399l-0.172-0.001zM438.4 746.24c-205.362 0-371.84-166.478-371.84-371.84s166.478-371.84 371.84-371.84c205.362 0 371.84 166.478 371.84 371.84v0c0 0.19 0.001 0.415 0.001 0.641 0 205.008-166.192 371.2-371.2 371.2-0.225 0-0.45 0-0.675-0.001h0.034zM600.32 311.68h-161.92c-18.38 0-33.28 14.9-33.28 33.28v0 250.24c4.108 14.050 16.876 24.139 32 24.139s27.892-10.089 31.941-23.904l0.059-0.235v-220.8h128c18.38 0 33.28-14.9 33.28-33.28v0c-1.29-15.933-14.078-28.5-29.993-29.436l-0.087-0.004zM637.44 896h-398.080c-14.050 4.108-24.139 16.876-24.139 32s10.089 27.892 23.904 31.941l0.235 0.059h398.080c2.739 0.812 5.885 1.28 9.141 1.28 18.38 0 33.28-14.9 33.28-33.28s-14.9-33.28-33.28-33.28c-3.256 0-6.402 0.468-9.376 1.339l0.235-0.059z" />
<glyph unicode="&#xe911;" glyph-name="10" d="M499.2 384c-160 0-288 128-288 281.6s128 281.6 281.6 281.6 281.6-128 281.6-281.6-121.6-281.6-275.2-281.6zM499.2 870.4c-115.2 0-204.8-89.6-204.8-204.8s89.6-204.8 204.8-204.8 204.8 96 204.8 204.8-96 204.8-204.8 204.8zM102.4-57.6c-19.2 0-38.4 19.2-38.4 38.4 0 249.6 204.8 454.4 454.4 454.4 76.8 0 147.2-19.2 217.6-57.6 19.2-12.8 25.6-32 12.8-57.6-12.8-19.2-32-25.6-57.6-12.8-57.6 32-115.2 51.2-179.2 51.2-204.8 0-371.2-166.4-371.2-371.2 6.4-25.6-12.8-44.8-38.4-44.8zM940.8 147.2h-320c-12.8 0-19.2 6.4-19.2 19.2s6.4 19.2 19.2 19.2h320c12.8 0 19.2-6.4 19.2-19.2s-6.4-19.2-19.2-19.2zM940.8 12.8h-320c-12.8 0-19.2 6.4-19.2 19.2s6.4 19.2 19.2 19.2h320c12.8 0 19.2-6.4 19.2-19.2s-6.4-19.2-19.2-19.2z" />
<glyph unicode="&#xe912;" glyph-name="uniE912" d="M716.8 844.8h268.8c25.6 0 38.4 19.2 38.4 38.4s-12.8 38.4-38.4 38.4h-268.8c-25.6 0-32-19.2-32-38.4s12.8-38.4 32-38.4zM985.6 812.8h-102.4c-25.6 0-38.4-19.2-38.4-38.4s12.8-38.4 38.4-38.4h102.4c25.6 0 38.4 19.2 38.4 38.4s-12.8 38.4-38.4 38.4zM985.6 684.8c-19.2 0-32-6.4-38.4-25.6-57.6-153.6-121.6-313.6-192-492.8-19.2 51.2-44.8 102.4-83.2 147.2s-83.2 83.2-140.8 108.8c70.4 44.8 115.2 121.6 115.2 211.2v6.4c0 147.2-115.2 256-262.4 262.4h-6.4c-140.8 0-256-115.2-256-262.4 0-89.6 44.8-166.4 115.2-217.6-51.2-25.6-96-57.6-134.4-102.4-76.8-83.2-108.8-198.4-96-307.2 0-25.6 19.2-32 38.4-32h691.2c12.8 0 32 6.4 38.4 25.6 6.4 6.4 6.4 6.4 6.4 12.8 76.8 192 153.6 396.8 243.2 627.2 6.4 12.8 6.4 19.2 0 32-12.8 0-25.6 6.4-38.4 6.4zM384 448v0c-102.4 0-185.6 83.2-185.6 192 0 102.4 83.2 185.6 185.6 192h6.4c102.4 0 185.6-83.2 185.6-192s-83.2-192-192-192c0 0 0 0 0 0zM76.8 44.8c0 83.2 25.6 160 76.8 224 57.6 64 134.4 102.4 217.6 108.8 6.4 0 6.4 0 12.8 0h6.4c6.4 0 12.8 0 19.2 0 76.8-6.4 153.6-38.4 211.2-102.4 57.6-57.6 83.2-140.8 83.2-230.4h-627.2z" />
<glyph unicode="&#xe913;" glyph-name="-111" d="M704 768h-576c-70.4 0-128-57.6-128-128v-576c0-70.4 57.6-128 128-128h576c70.4 0 128 57.6 128 128v576c0 70.4-57.6 128-128 128zM768 64c0-32-25.6-64-64-64h-576c-32 0-64 25.6-64 64v576c0 32 25.6 64 64 64h576c32 0 64-25.6 64-64v-576zM192 512h448v64h-448v-64zM192 384h448v64h-448v-64zM192 256h448v64h-448v-64zM192 128h256v64h-256v-64zM896 960h-576c-70.4 0-128-57.6-128-128h64c0 32 25.6 64 64 64h576c32 0 64-25.6 64-64v-576c0-32-25.6-64-64-64v-64c70.4 0 128 57.6 128 128v576c0 70.4-57.6 128-128 128z" />
<glyph unicode="&#xe914;" glyph-name="uniE914" horiz-adv-x="1255" d="M363.304 562.955h65.913v-230.694h-65.913zM1222.523 549.615c-54.821 0-99.261-44.441-99.261-99.261s44.441-99.261 99.261-99.261h32.956v-313.87c0-54.604-44.265-98.869-98.869-98.869v0h-1057.741c-0.008 0-0.018 0-0.028 0-53.776 0-97.525 42.933-98.839 96.393l-0.002 0.122v313.87h32.956c10.394 0.042 20.372 1.762 29.697 4.902l-0.664-0.194c40.664 12.776 69.675 50.059 69.836 94.142v0.019c0.001 0.121 0.001 0.263 0.001 0.406 0 43.374-27.931 80.225-66.787 93.548l-0.696 0.207c-9.336 3.387-20.111 5.391-31.341 5.492h-33.002v313.87c0 54.604 44.265 98.869 98.869 98.869h1057.741c0.001 0 0.002 0 0.003 0 54.604 0 98.869-44.265 98.869-98.869 0-0.276-0.001-0.551-0.003-0.827v0.042-313.87h-32.956zM1189.566 863.485c0 18.201-14.755 32.956-32.956 32.956v0h-1057.741c-18.201 0-32.956-14.755-32.956-32.956v0-250.311l19.617-8.631c64.344-23.687 109.407-84.456 109.407-155.751 0-73.914-48.434-136.515-115.296-157.797l-1.172-0.322h-12.555v-254.234c0-18.201 14.755-32.956 32.956-32.956v0h1057.741c18.201 0 32.956 14.755 32.956 32.956v0 254.234c-76.218 15.491-132.773 81.963-132.773 161.643s56.555 146.152 131.713 161.463l1.060 0.18zM363.304 199.651h65.913v-198.523h-65.913zM363.304 893.303h65.913v-197.738h-65.913z" />
<glyph unicode="&#xe915;" glyph-name="uniE915" horiz-adv-x="1025" d="M512.32 960c-0.42 0.001-0.917 0.002-1.415 0.002-282.947 0-512.32-229.374-512.32-512.32 0-211.565 128.24-393.178 311.227-471.348l3.343-1.27c58.757-25.028 127.107-39.577 198.856-39.577 96.128 0 186.156 26.116 263.377 71.639l-2.426-1.323c76.406 45.81 138.31 108.534 181.842 183.276l1.312 2.44c3.738 6.178 5.95 13.642 5.95 21.623 0 3.926-0.535 7.728-1.537 11.335l0.070-0.297c-3.139 11.351-10.517 20.607-20.28 26.145l-0.213 0.111c-6.091 3.37-13.354 5.353-21.081 5.353-15.971 0-29.963-8.473-37.726-21.169l-0.11-0.194c-75.046-128.012-211.956-212.613-368.626-212.613-0.086 0-0.172 0-0.258 0h0.013c-235.075 0.165-425.577 190.768-425.577 425.866 0 117.528 47.608 223.936 124.592 300.992l-0.003-0.003c77.097 77.25 183.687 125.041 301.44 125.041 77.568 0 150.292-20.738 212.93-56.972l-2.050 1.094c54.869-31.673 100.588-73.1 136.175-122.333l0.87-1.265 17.291-24.335-109.508-108.868h256.16c0.273 0.562 0.433 1.223 0.433 1.921s-0.16 1.359-0.444 1.948l0.012-0.027v256.16l-85.173-87.735-24.335 30.739c-94.616 119.743-239.813 195.908-402.803 195.962h-0.009z" />
<glyph unicode="&#xe916;" glyph-name="uniE916" d="M908.8 70.4c0-16-6.4-32-19.2-44.8-9.6-9.6-25.6-19.2-44.8-19.2h-793.6l112 524.8c0 35.2 28.8 64 64 64h732.8c35.2 0 64-28.8 64-64l-115.2-460.8zM176 643.2h716.8v60.8c0 16-6.4 32-19.2 44.8-9.6 9.6-25.6 19.2-44.8 19.2h-380.8v57.6c0 35.2-28.8 64-64 64h-316.8c-35.2 0-64-28.8-64-64v-755.2l112 508.8c0 35.2 25.6 64 60.8 64z" />
<glyph unicode="&#xe917;" glyph-name="12" d="M291.2-44.8l659.2 380.8c86.4 51.2 86.4 176 0 227.2l-659.2 377.6c-86.4 51.2-195.2-9.6-195.2-112v-761.6c0-102.4 108.8-163.2 195.2-112z" />
<glyph unicode="&#xe918;" glyph-name="13" d="M531.2 649.6h-48c-6.4 0-12.8 3.2-19.2 6.4l-288 236.8c-12.8 9.6-12.8 28.8-3.2 41.6 12.8 12.8 28.8 16 41.6 3.2l278.4-230.4h25.6l268.8 243.2c12.8 12.8 32 9.6 41.6-3.2 12.8-12.8 9.6-32-3.2-41.6l-275.2-249.6c-6.4-3.2-12.8-6.4-19.2-6.4zM902.4-44.8h-780.8c-48 0-86.4 38.4-86.4 86.4v566.4c0 48 38.4 86.4 86.4 86.4h784c48 0 86.4-38.4 86.4-86.4v-566.4c0-44.8-41.6-86.4-89.6-86.4zM121.6 636.8c-16 0-28.8-12.8-28.8-28.8v-566.4c0-16 12.8-28.8 28.8-28.8h784c16 0 28.8 12.8 28.8 28.8v566.4c0 16-12.8 28.8-28.8 28.8h-784zM419.2 121.6c-6.4 0-9.6 3.2-12.8 3.2-9.6 6.4-16 16-16 25.6v345.6c0 12.8 6.4 22.4 16 25.6 9.6 6.4 22.4 6.4 32-3.2l243.2-172.8c9.6-6.4 12.8-16 12.8-25.6s-6.4-19.2-12.8-25.6l-246.4-166.4c-3.2-3.2-9.6-6.4-16-6.4zM448 438.4v-230.4l163.2 115.2-163.2 115.2z" />
<glyph unicode="&#xe919;" glyph-name="14" d="M960 736h-166.4c-32 0-57.6 25.6-57.6 57.6v160l224-217.6zM787.2 723.2c-32 0-57.6 25.6-57.6 57.6v172.8h-608c-32 0-57.6-25.6-57.6-57.6v-908.8c0-32 25.6-57.6 57.6-57.6h780.8c32 0 57.6 25.6 57.6 57.6v736h-172.8zM659.2 627.2c38.4 0 70.4-32 70.4-70.4s-32-70.4-70.4-70.4-70.4 32-70.4 70.4c0 38.4 32 70.4 70.4 70.4zM736 217.6c0-6.4-6.4-6.4-6.4-6.4h-428.8c-6.4 0-6.4 0-6.4 6.4 0 0 0 6.4 0 12.8l128 300.8c0 6.4 6.4 6.4 6.4 6.4 6.4 0 6.4 0 12.8-6.4l147.2-236.8 44.8 70.4c0 0 6.4 6.4 6.4 6.4 6.4 0 6.4 0 6.4-6.4l89.6-134.4c0-6.4 0-6.4 0-12.8z" />
<glyph unicode="&#xe91a;" glyph-name="uniE91A" d="M723.2 960v-185.6c0-25.6 19.2-44.8 44.8-44.8h185.6l-230.4 230.4zM768 684.8c-51.2 0-89.6 38.4-89.6 89.6v185.6h-531.2c-38.4 0-76.8-38.4-76.8-76.8v-864c0-44.8 38.4-76.8 76.8-76.8h723.2c44.8 0 76.8 38.4 76.8 76.8v665.6h-179.2zM691.2 281.6v0-6.4c0 0 0-6.4 0-6.4s0-6.4 0-6.4c-6.4-51.2-44.8-89.6-89.6-89.6-38.4 0-64 38.4-57.6 89.6s44.8 89.6 89.6 89.6c0 0 6.4 0 6.4 0v204.8l-256-44.8v-281.6c0-6.4 0-12.8 0-19.2-6.4-51.2-44.8-89.6-89.6-89.6-38.4 0-64 38.4-57.6 89.6s44.8 89.6 89.6 89.6c0 0 6.4 0 6.4 0v236.8c0 12.8 12.8 25.6 25.6 25.6l300.8 51.2c6.4 0 12.8 0 19.2-6.4s12.8-12.8 12.8-19.2c0 0 0-307.2 0-307.2z" />
<glyph unicode="&#xe91b;" glyph-name="uniE91B" d="M563.2 499.2v204.8c0 25.6-25.6 51.2-51.2 51.2s-51.2-25.6-51.2-51.2v-204.8h-204.8c-25.6 0-51.2-25.6-51.2-51.2s25.6-51.2 51.2-51.2h204.8v-204.8c0-25.6 25.6-51.2 51.2-51.2s51.2 25.6 51.2 51.2v204.8h204.8c25.6 0 51.2 25.6 51.2 51.2s-25.6 51.2-51.2 51.2h-204.8zM147.2 83.2c-198.4 198.4-198.4 524.8 0 723.2s524.8 198.4 723.2 0c198.4-198.4 198.4-524.8 0-723.2s-518.4-198.4-723.2 0v0z" />
<glyph unicode="&#xe91c;" glyph-name="15" d="M876.8 812.8c-198.4 198.4-524.8 198.4-723.2 0s-198.4-524.8 0-723.2c198.4-198.4 524.8-198.4 723.2 0s198.4 518.4 0 723.2zM819.2 454.4c0-25.6-25.6-51.2-51.2-51.2h-518.4c-25.6 0-51.2 25.6-51.2 51.2v0c0 25.6 25.6 51.2 51.2 51.2h518.4c32 0 51.2-19.2 51.2-51.2v0z" />
<glyph unicode="&#xe91d;" glyph-name="uniE91D" d="M1024 236.8v640c0 44.8-38.4 83.2-83.2 83.2v0h-857.6c-44.8 0-83.2-38.4-83.2-83.2v-640c0-44.8 38.4-83.2 83.2-83.2h371.2v-115.2h-403.2c-25.6 0-51.2-25.6-51.2-51.2v0c0-25.6 25.6-51.2 51.2-51.2 0 0 0 0 0 0h921.6c25.6 0 51.2 25.6 51.2 51.2 0 0 0 0 0 0 0 25.6-25.6 51.2-51.2 51.2 0 0 0 0 0 0h-403.2v115.2h371.2c44.8 0 83.2 38.4 83.2 83.2zM716.8 620.8c-19.2-19.2-44.8-19.2-64 0 0 0 0 0 0 0l-96 96v-422.4c0-19.2-19.2-38.4-44.8-38.4s-44.8 19.2-44.8 44.8c0 0 0 0 0 0v416l-96-96c-19.2-19.2-44.8-19.2-64 0s-19.2 44.8 0 64l172.8 172.8c19.2 19.2 44.8 19.2 64 0 0 0 0 0 0 0l179.2-172.8c12.8-19.2 12.8-44.8-6.4-64 0 0 0 0 0 0z" />
<glyph unicode="&#xe91e;" glyph-name="28" d="M816 816h-768c-17.673 0-32 14.327-32 32s14.327 32 32 32v0h768c17.673 0 32-14.327 32-32s-14.327-32-32-32v0zM304 496h-256c-17.673 0-32 14.327-32 32s14.327 32 32 32v0h256c17.673 0 32-14.327 32-32s-14.327-32-32-32v0zM304 176h-256c-17.673 0-32 14.327-32 32s14.327 32 32 32v0h256c17.673 0 32-14.327 32-32s-14.327-32-32-32v0zM688 16c-176.731 0-320 143.269-320 320s143.269 320 320 320c176.731 0 320-143.269 320-320v0c0-176.731-143.269-320-320-320v0zM688 592c-141.385 0-256-114.615-256-256s114.615-256 256-256c141.385 0 256 114.615 256 256v0c0 141.385-114.615 256-256 256v0zM816 304h-128c-17.673 0-32 14.327-32 32v0 128c0 17.673 14.327 32 32 32s32-14.327 32-32v0-96h96c17.673 0 32-14.327 32-32s-14.327-32-32-32v0z" />
<glyph unicode="&#xe91f;" glyph-name="uniE91F" horiz-adv-x="1170" d="M1148.343 718.629c-13.049 13.308-31.122 21.648-51.145 21.942l-0.055 0.001h-292.571l-190.903 193.097c-16.632 15.257-38.515 25.028-62.649 26.321l-0.254 0.011h-477.623c-40.396 0-73.143-32.747-73.143-73.143v0-877.714c0-40.396 32.747-73.143 73.143-73.143v0h1024c40.396 0 73.143 32.747 73.143 73.143v0 658.286c-0.295 20.078-8.635 38.151-21.931 51.188l-0.012 0.012zM1097.143 9.143h-1024v877.714h468.846l230.4-219.429h324.754zM621.714 411.429v146.286c0 20.198-16.374 36.571-36.571 36.571s-36.571-16.374-36.571-36.571v0-146.286h-146.286c-20.198 0-36.571-16.374-36.571-36.571s16.374-36.571 36.571-36.571v0h146.286v-146.286c0-20.198 16.374-36.571 36.571-36.571s36.571 16.374 36.571 36.571v0 146.286h146.286c20.198 0 36.571 16.374 36.571 36.571s-16.374 36.571-36.571 36.571v0z" />
<glyph unicode="&#xe920;" glyph-name="16" d="M0 960v-1024h1024v1024zM970.88-10.88h-917.76v917.76h917.76zM181.12 512h682.24v-128h-682.24zM586.88 789.12v-682.24h-128v682.24z" />
<glyph unicode="&#xe921;" glyph-name="17" d="M0 960v-1024h1024v1024zM970.88-10.88h-917.76v917.76h917.76zM181.12 512h682.24v-128h-682.24z" />
<glyph unicode="&#xe922;" glyph-name="uniE922" d="M1004.8 57.6l-172.8 172.8c147.2 204.8 102.4 492.8-102.4 640s-492.8 102.4-640-102.4-102.4-486.4 102.4-640c160-115.2 377.6-115.2 537.6 0l172.8-172.8c12.8-12.8 32-19.2 51.2-19.2s38.4 6.4 51.2 19.2c25.6 32 25.6 76.8 0 102.4 0 0 0 0 0 0zM460.8 134.4c-198.4 0-364.8 160-364.8 364.8s160 364.8 364.8 364.8 364.8-160 364.8-364.8c0 0 0 0 0 0 0-198.4-166.4-364.8-364.8-364.8z" />
<glyph unicode="&#xe923;" glyph-name="18" d="M889.6 396.8c6.4 19.2 6.4 32 6.4 51.2s0 32-6.4 51.2l108.8 83.2c12.8 6.4 12.8 19.2 6.4 32l-102.4 179.2c-6.4 12.8-19.2 12.8-32 12.8l-128-51.2c-25.6 19.2-57.6 38.4-89.6 51.2l-12.8 134.4c0 12.8-12.8 19.2-25.6 19.2h-204.8c-12.8 0-25.6-6.4-25.6-19.2l-19.2-140.8c-32-12.8-57.6-25.6-83.2-44.8l-128 51.2c-12.8 0-25.6 0-32-12.8l-102.4-179.2c-6.4-12.8-6.4-25.6 6.4-32l108.8-83.2c-6.4-19.2-6.4-32-6.4-51.2s0-32 6.4-51.2l-108.8-83.2c-12.8-6.4-12.8-19.2-6.4-32l102.4-179.2c6.4-12.8 19.2-12.8 32-12.8l128 51.2c25.6-19.2 57.6-38.4 89.6-51.2l12.8-134.4c0-12.8 12.8-19.2 25.6-19.2h204.8c12.8 0 25.6 6.4 25.6 19.2l19.2 134.4c32 12.8 57.6 32 89.6 51.2l128-51.2c12.8-6.4 25.6 0 32 12.8l102.4 179.2c6.4 12.8 6.4 25.6-6.4 32l-115.2 83.2zM512 268.8c-96 0-179.2 83.2-179.2 179.2s76.8 179.2 179.2 179.2c96 0 179.2-83.2 179.2-179.2s-83.2-179.2-179.2-179.2v0z" />
<glyph unicode="&#xe924;" glyph-name="19" d="M12.8 960h1004.8c0 0 6.4-6.4 6.4-12.8v-96c0-6.4-6.4-12.8-12.8-12.8h-998.4c-6.4 6.4-12.8 6.4-12.8 19.2v89.6c0 6.4 6.4 12.8 12.8 12.8zM12.8 659.2h1004.8c6.4 0 12.8-6.4 12.8-12.8v-96c0-6.4-6.4-12.8-12.8-12.8h-1004.8c-6.4 6.4-12.8 6.4-12.8 12.8v96c0 6.4 6.4 12.8 12.8 12.8zM12.8 352h1004.8c6.4 0 12.8-6.4 12.8-12.8v-96c0-6.4-6.4-12.8-12.8-12.8h-1004.8c-6.4 0-12.8 6.4-12.8 12.8v102.4c0 6.4 6.4 6.4 12.8 6.4zM12.8 51.2h492.8c6.4 0 12.8-6.4 12.8-12.8v-96c-6.4 0-12.8-6.4-19.2-6.4h-486.4c-6.4 0-12.8 6.4-12.8 12.8v96c0 6.4 6.4 6.4 12.8 6.4z" />
<glyph unicode="&#xe925;" glyph-name="20" d="M377.6 480h-275.2c-57.6 0-102.4 44.8-102.4 102.4v0 275.2c0 57.6 44.8 102.4 102.4 102.4h281.6c57.6 0 102.4-44.8 102.4-102.4v-281.6c-6.4-51.2-51.2-96-108.8-96zM102.4 876.8c-12.8 0-19.2-6.4-19.2-19.2v-281.6c0-12.8 6.4-19.2 19.2-19.2v0h281.6c12.8 0 19.2 6.4 19.2 19.2v281.6c0 12.8-6.4 19.2-19.2 19.2v0c-6.4 0-281.6 0-281.6 0zM377.6-64h-275.2c-57.6 0-102.4 44.8-102.4 102.4v0 281.6c0 57.6 44.8 102.4 102.4 102.4h281.6c57.6 0 102.4-44.8 102.4-102.4v-281.6c-6.4-57.6-51.2-102.4-108.8-102.4zM102.4 339.2c-12.8 0-19.2-6.4-19.2-19.2v-281.6c0-12.8 6.4-19.2 19.2-19.2h281.6c12.8 0 19.2 6.4 19.2 19.2v281.6c0 12.8-6.4 19.2-19.2 19.2-6.4 0-281.6 0-281.6 0zM928 480h-275.2c-51.2 0-96 44.8-96 102.4v275.2c0 57.6 44.8 102.4 96 102.4h275.2c51.2 0 96-44.8 96-102.4v-281.6c0-51.2-44.8-96-96-96zM652.8 876.8c-6.4 0-12.8 0-12.8-6.4-6.4 0-6.4-6.4-6.4-12.8v-281.6c0-6.4 0-12.8 6.4-12.8 6.4-6.4 6.4-6.4 12.8-6.4h275.2c12.8 0 19.2 6.4 19.2 19.2v281.6c0 6.4 0 12.8-6.4 12.8-6.4 6.4-6.4 6.4-12.8 6.4 0 0-275.2 0-275.2 0zM928-64h-275.2c-51.2 0-96 44.8-96 102.4v281.6c0 57.6 44.8 102.4 96 102.4h275.2c51.2 0 96-44.8 96-102.4v-281.6c0-57.6-44.8-102.4-96-102.4zM652.8 339.2c-6.4 0-12.8 0-12.8-6.4-6.4-6.4-6.4-12.8-6.4-19.2v-281.6c0-6.4 0-12.8 6.4-12.8 6.4-6.4 6.4-6.4 12.8-6.4h275.2c6.4 0 12.8 0 12.8 6.4 6.4 6.4 6.4 6.4 6.4 12.8v281.6c0 12.8-6.4 19.2-19.2 19.2 0 0 0 0 0 0 0 6.4-275.2 6.4-275.2 6.4z" />
<glyph unicode="&#xe926;" glyph-name="uniE926" d="M979.2 172.8c-12.8 0-25.6 6.4-32 12.8l-435.2 435.2-435.2-435.2c-19.2-19.2-44.8-19.2-64 0s-19.2 44.8 0 64l467.2 467.2c19.2 19.2 44.8 19.2 64 0l467.2-467.2c19.2-19.2 19.2-44.8 0-64-6.4-12.8-19.2-12.8-32-12.8z" />
<glyph unicode="&#xe927;" glyph-name="uniE927" d="M940.8 550.4h-275.2c108.8 390.4-70.4 409.6-70.4 409.6-76.8 0-57.6-57.6-64-70.4 0-192-204.8-339.2-204.8-339.2v-544c0-51.2 70.4-70.4 102.4-70.4h409.6c38.4 0 70.4 102.4 70.4 102.4 102.4 345.6 102.4 448 102.4 448-6.4 70.4-70.4 64-70.4 64v0 0 0zM211.2 550.4h-160c-32 0-32-32-32-32v-544c0-38.4 32-38.4 32-38.4h172.8c32 0 32 25.6 32 25.6v544c0 44.8-44.8 44.8-44.8 44.8v0 0 0z" />
<glyph unicode="&#xe928;" glyph-name="111" d="M883.2 620.8c89.6 0 160-89.6 134.4-185.6l-108.8-396.8c-19.2-64-70.4-108.8-134.4-108.8h-633.6c-76.8 6.4-140.8 70.4-140.8 147.2v371.2c0 76.8 64 147.2 140.8 147.2h102.4c108.8 0 198.4 83.2 198.4 192v32c-6.4 76.8 51.2 140.8 128 140.8 64 0 115.2-38.4 128-96l6.4-19.2c19.2-51.2 6.4-153.6-12.8-224h192zM147.2 537.6c-38.4 0-76.8-44.8-76.8-89.6v-358.4c0-44.8 38.4-83.2 83.2-83.2h614.4c38.4 0 70.4 25.6 76.8 64l108.8 384c12.8 51.2-25.6 108.8-76.8 108.8h-268.8l19.2 38.4c25.6 51.2 38.4 166.4 25.6 217.6l-6.4 19.2c-12.8 32-44.8 51.2-76.8 51.2-44.8 0-76.8-38.4-76.8-83.2v-25.6c0-140.8-108.8-243.2-243.2-243.2h-102.4zM198.4 563.2h70.4v-595.2h-70.4v595.2z" />
<glyph unicode="&#xe929;" glyph-name="uniE929" horiz-adv-x="1053" d="M44.093-64c-24.352 0-44.093 19.741-44.093 44.093v0 848.288c0 72.691 58.928 131.62 131.62 131.62v0h789.717c72.691 0 131.62-58.928 131.62-131.62v0-599.527c0-72.691-58.928-131.62-131.62-131.62v0h-627.167c-1.614-0.209-3.482-0.329-5.377-0.329-24.352 0-44.093 19.741-44.093 44.093s19.741 44.093 44.093 44.093c1.895 0 3.762-0.12 5.594-0.352l-0.218 0.023h627.167c24.352 0 44.093 19.741 44.093 44.093v0 599.527c-0.371 24.067-19.967 43.434-44.088 43.434-0.002 0-0.003 0-0.005 0h-789.717c-24.352 0-44.093-19.741-44.093-44.093v0-847.63c0-0.001 0-0.003 0-0.005 0-24.12-19.368-43.717-43.4-44.087h-0.035zM760.761 565.799h-480.411c-1.614-0.209-3.482-0.329-5.377-0.329-24.352 0-44.093 19.741-44.093 44.093s19.741 44.093 44.093 44.093c1.895 0 3.762-0.12 5.594-0.352l-0.218 0.023h480.411c21.928-2.772 38.716-21.307 38.716-43.763s-16.788-40.992-38.498-43.741l-0.218-0.023zM497.522 361.131h-219.147c-2.282-0.419-4.908-0.658-7.59-0.658-24.352 0-44.093 19.741-44.093 44.093s19.741 44.093 44.093 44.093c2.682 0 5.308-0.239 7.857-0.698l-0.268 0.040h217.172c1.614 0.209 3.482 0.329 5.377 0.329 24.352 0 44.093-19.741 44.093-44.093s-19.741-44.093-44.093-44.093c-1.895 0-3.762 0.12-5.594 0.352l0.218-0.023zM57.254-56.761c-0.042 0-0.093 0-0.143 0-24.352 0-44.093 19.741-44.093 44.093 0 15.342 7.836 28.854 19.723 36.752l0.162 0.102 234.283 153.337c7.683 6.668 17.782 10.731 28.83 10.731 24.352 0 44.093-19.741 44.093-44.093 0-17.363-10.036-32.381-24.623-39.572l-0.258-0.115-234.283-153.995c-6.666-4.478-14.858-7.172-23.674-7.239h-0.017z" />
<glyph unicode="&#xe92a;" glyph-name="-5" horiz-adv-x="932" d="M762.177 647.862v113.674l150.013 37.27c11.145 3.134 19.179 13.208 19.179 25.157s-8.034 22.023-18.995 25.113l-0.184 0.044-439.789 109.947c-1.819 0.453-3.907 0.713-6.056 0.713s-4.237-0.26-6.235-0.75l0.179 0.037-440.721-109.947c-11.145-3.134-19.179-13.208-19.179-25.157s8.034-22.023 18.995-25.113l0.184-0.044 39.134-10.249v-198.464c2.389-12.146 12.951-21.181 25.623-21.181s23.235 9.035 25.596 21.015l0.027 0.165v186.351l58.701-14.908v-113.674c1.039-5.526 3.694-10.31 7.449-13.971l0.005-0.005 18.635-16.772c-0.396-5.574-0.622-12.078-0.622-18.635s0.226-13.061 0.67-19.505l-0.048 0.87c-0.093-2.534-0.146-5.512-0.146-8.501 0-103.184 63.293-191.586 153.173-228.499l1.645-0.598c-171.555-53.134-300.456-194.44-334.929-369.631l-0.504-3.071c-0.588-2.065-0.926-4.437-0.926-6.888 0-14.409 11.681-26.089 26.089-26.089 14.21 0 25.766 11.36 26.083 25.493l0.001 0.029c38.168 195.345 205.224 341.659 407.493 347.531l0.616 0.014c199.635-9.744 361.974-157.716 393.799-349.763l0.334-2.44c2.252-12.099 12.608-21.176 25.131-21.43h0.027c12.424 2.151 21.753 12.849 21.753 25.726 0 1.444-0.117 2.861-0.343 4.241l0.020-0.151c-31.613 178.711-157.583 321.74-323.628 377.301l-3.419 0.992c90.463 37.994 152.836 125.858 152.836 228.29 0 1.307-0.010 2.612-0.030 3.914l0.002-0.196c0.396 5.574 0.622 12.078 0.622 18.635s-0.226 13.061-0.67 19.505l0.048-0.87 17.703 15.84c5.040 4.663 8.23 11.262 8.385 18.607v0.028zM465.878 906.89l333.569-86.653-333.569-80.131-333.569 80.131 333.569 86.653zM459.356 688.859h12.113l238.53 59.632v-93.176l-16.772-12.113c-56.54-26.708-122.822-42.3-192.746-42.3-12.178 0-24.245 0.473-36.185 1.401l1.582-0.099c-8.714-0.581-18.89-0.912-29.143-0.912-72.345 0-140.838 16.49-201.927 45.916l2.79-1.211-16.772 12.113v93.176l238.53-59.632zM687.636 577.048c-0.752-113.669-93.072-205.525-206.846-205.525-5.248 0-10.45 0.195-15.599 0.579l0.687-0.041c-4.463-0.343-9.665-0.538-14.912-0.538-113.774 0-206.094 91.856-206.845 205.453v0.072s0 5.591 0 8.386c61.096-23.737 131.812-37.49 205.74-37.49 5.632 0 11.246 0.080 16.84 0.238l-0.822-0.018c5.461-0.183 11.88-0.288 18.324-0.288 73.062 0 142.987 13.433 207.439 37.965l-4.005-1.339s0-5.591 0-8.386z" />
<glyph unicode="&#xe92b;" glyph-name="uniE92B" d="M921.6 787.2c19.2 0 38.4-19.2 38.4-38.4v-601.6c0-19.2-19.2-38.4-38.4-38.4h-819.2c-19.2 0-38.4 19.2-38.4 38.4v601.6c0 19.2 19.2 38.4 38.4 38.4h819.2zM921.6 851.2h-819.2c-57.6 0-102.4-44.8-102.4-102.4v-601.6c0-57.6 44.8-102.4 102.4-102.4h819.2c57.6 0 102.4 44.8 102.4 102.4v601.6c0 57.6-44.8 102.4-102.4 102.4zM473.6 435.2c25.6 25.6 38.4 57.6 38.4 96 0 76.8-64 134.4-134.4 134.4s-134.4-64-134.4-134.4c0-38.4 12.8-70.4 38.4-96-76.8-38.4-128-115.2-128-204.8h64c0 44.8 19.2 83.2 51.2 115.2s70.4 44.8 108.8 51.2c0 0 6.4 0 6.4 0s6.4 0 6.4 0c38.4 0 76.8-19.2 108.8-51.2s51.2-70.4 51.2-115.2h64c-12.8 89.6-64 166.4-140.8 204.8zM300.8 531.2c0 38.4 32 70.4 70.4 70.4s76.8-32 76.8-70.4c0-38.4-32-70.4-64-70.4 0 0-6.4 0-6.4 0s-6.4 0-6.4 0c-38.4 0-70.4 32-70.4 70.4zM876.8 633.6c0-19.2-12.8-32-32-32h-211.2c-19.2 0-32 12.8-32 32s12.8 32 32 32h211.2c19.2 0 32-12.8 32-32zM876.8 486.4c0-19.2-12.8-32-32-32h-140.8c-19.2 0-32 12.8-32 32s12.8 32 32 32h140.8c19.2 0 32-19.2 32-32zM876.8 332.8c0-19.2-12.8-32-32-32h-76.8c-19.2 0-32 12.8-32 32s12.8 32 32 32h83.2c12.8 0 25.6-12.8 25.6-32z" />
<glyph unicode="&#xe92c;" glyph-name="22" d="M89.6 25.6h268.8v-89.6h-358.4v358.4h89.6zM89.6 870.4v-268.8h-89.6v358.4h358.4v-89.6zM934.4 25.6v268.8h89.6v-358.4h-358.4v89.6zM934.4 870.4h-268.8v89.6h358.4v-358.4h-89.6zM717.44 710.4l-172.8-247.68-64 44.16 143.36 203.52zM397.44 710.4l145.92-206.72-64-43.52-172.16 250.24zM324.48 439.68v76.8h373.12v-76.8h-373.12zM324.48 298.88v76.8h373.12v-76.8h-373.12zM468.48 524.16h89.6l5.76-332.16h-89.6z" />
<glyph unicode="&#xe92d;" glyph-name="-8" horiz-adv-x="1026" d="M989.114-65.026h-952.176c-17.592 3.044-30.803 18.192-30.803 36.425s13.211 33.381 30.583 36.393l0.22 0.032h953.202c17.592-3.044 30.803-18.192 30.803-36.425s-13.211-33.381-30.583-36.393l-0.22-0.032zM963.463 653.21l-185.715 181.611v-675.142c0.326-1.844 0.513-3.968 0.513-6.135 0-20.4-16.538-36.938-36.938-36.938s-36.938 16.538-36.938 36.938c0 2.167 0.187 4.291 0.545 6.355l-0.032-0.22v675.142l-186.741-181.611c-5.809-3.986-12.992-6.366-20.731-6.366-20.4 0-36.938 16.538-36.938 36.938 0 7.739 2.38 14.921 6.447 20.857l-0.082-0.126 245.226 246.253c6.635 6.41 15.682 10.359 25.651 10.359s19.017-3.95 25.662-10.37l-0.011 0.010 252.409-250.357c3.986-5.809 6.366-12.992 6.366-20.731 0-20.4-16.538-36.938-36.938-36.938-7.739 0-14.921 2.38-20.857 6.447l0.126-0.082zM40.016 430.557h513.026c17.592-3.044 30.803-18.192 30.803-36.425s-13.211-33.381-30.583-36.393l-0.22-0.032h-513.026c-17.592 3.044-30.803 18.192-30.803 36.425s13.211 33.381 30.583 36.393l0.22 0.032zM257.539 769.154h-220.601c-17.592 3.044-30.803 18.192-30.803 36.425s13.211 33.381 30.583 36.393l0.22 0.032h220.601c17.592-3.044 30.803-18.192 30.803-36.425s-13.211-33.381-30.583-36.393l-0.22-0.032z" />
<glyph unicode="&#xe92e;" glyph-name="oa_" d="M465.455 354.909c-25.424 0.368-45.892 21.064-45.892 46.541 0 12.692 5.080 24.197 13.317 32.594l465.448 465.448c8.458 8.458 20.142 13.689 33.047 13.689 25.812 0 46.736-20.924 46.736-46.736 0-12.906-5.231-24.59-13.689-33.047l-465.455-465.455c-8.36-8.073-19.758-13.048-32.317-13.048-0.42 0-0.839 0.006-1.257 0.017l0.062-0.001zM821.993-64h-619.985c-111.566 0-202.007 90.442-202.007 202.007v0 619.985c0 111.566 90.442 202.007 202.007 202.007v0h154.531c25.706 0 46.545-20.839 46.545-46.545s-20.839-46.545-46.545-46.545v0h-154.531c-60.153 0-108.916-48.764-108.916-108.916v0-619.985c0-60.153 48.764-108.916 108.916-108.916v0h619.985c60.153 0 108.916 48.764 108.916 108.916v0 154.531c0 25.706 20.839 46.545 46.545 46.545s46.545-20.839 46.545-46.545v0-154.531c0-111.566-90.442-202.007-202.007-202.007v0zM977.455 866.909h-372.364c-25.706 0-46.545 20.839-46.545 46.545s20.839 46.545 46.545 46.545v0h372.364c25.706 0 46.545-20.839 46.545-46.545s-20.839-46.545-46.545-46.545v0zM977.455 494.545c-25.706 0-46.545 20.839-46.545 46.545v0 372.364c0 25.706 20.839 46.545 46.545 46.545s46.545-20.839 46.545-46.545v0-372.364c0-25.706-20.839-46.545-46.545-46.545v0z" />
<glyph unicode="&#xe92f;" glyph-name="oa_1" d="M981.76 603.52h-142.72c-17.673 0-32 14.327-32 32s14.327 32 32 32v0h142.72c17.673 0 32-14.327 32-32s-14.327-32-32-32v0zM981.76 389.76h-284.8c-17.673 0-32 14.327-32 32s14.327 32 32 32v0h284.8c17.673 0 32-14.327 32-32s-14.327-32-32-32v0zM981.76 104.96h-427.52c-17.673 0-32 14.327-32 32s14.327 32 32 32v0h427.52c17.673 0 32-14.327 32-32s-14.327-32-32-32v0zM108.16 46.72c-17.673 0-32 14.327-32 32v0 213.12c0.063 5.912 1.72 11.425 4.561 16.144l-0.081-0.144 334.72 580.48c4.37 7.263 11.353 12.576 19.619 14.672l0.221 0.048c2.465 0.667 5.295 1.050 8.214 1.050 5.922 0 11.476-1.577 16.264-4.334l-0.158 0.084 184.96-106.88c9.505-5.665 15.773-15.891 15.773-27.58 0-5.867-1.579-11.364-4.334-16.092l0.082 0.152-336-580.48c-2.831-4.797-6.723-8.689-11.371-11.439l-0.149-0.081-184.32-106.88c-4.399-2.424-9.641-3.85-15.217-3.85-0.275 0-0.55 0.003-0.824 0.010l0.041-0.001zM140.16 283.52v-149.12l128 74.24 316.8 545.28-128 74.88zM293.12 184.96v0z" />
<glyph unicode="&#xe930;" glyph-name="-9" horiz-adv-x="1272" d="M0 956.609v-1017.219h1271.523v1017.219zM1165.563 41.96h-1059.603v812.079h1059.603v-812.079zM876.503 220.821s0 39.841-84.768 76.291c-53.153 33.424-114.723 60.191-180.283 77.005l-4.511 0.981c23.675 29.924 42.716 64.841 55.26 102.717l0.687 2.395c5.909 17.873 9.318 38.447 9.318 59.818 0 6.397-0.305 12.723-0.903 18.964l0.061-0.795c1.381 11.954 2.169 25.806 2.169 39.841s-0.788 27.887-2.322 41.513l0.153-1.672c-12.142 50.659-57.045 87.732-110.607 87.732-3.437 0-6.839-0.153-10.198-0.452l0.434 0.031c-4.106 0.526-8.856 0.826-13.676 0.826-52.788 0-97.166-36.009-109.91-84.804l-0.175-0.79c-1.343-11.952-2.11-25.807-2.11-39.841s0.766-27.889 2.26-41.525l-0.15 1.684c-0.52-5.389-0.817-11.651-0.817-17.982 0-21.433 3.399-42.072 9.688-61.408l-0.395 1.403c13.231-40.272 32.272-75.189 56.49-105.825l-0.543 0.712c-69.461-18.006-130.435-44.748-185.809-79.577l2.709 1.59c-84.768-36.45-84.768-76.291-84.768-76.291v-66.967h653.563v66.967zM767.152 704.848h264.477v-52.556h-264.477v52.556zM767.152 581.086h155.974v-52.556h-155.974v52.556zM767.152 458.172h220.397v-52.556h-220.397v52.556z" />
<glyph unicode="&#xe931;" glyph-name="-10" d="M983.893 744.107h-121.173v-125.44c0.542-2.065 0.853-4.436 0.853-6.88 0-15.552-12.608-28.16-28.16-28.16s-28.16 12.608-28.16 28.16c0 2.444 0.311 4.815 0.896 7.075l-0.043-0.196v125.44h-120.32c-22.187 0-40.107 11.947-40.107 27.307s17.92 27.307 40.107 27.307h121.173v122.027c0 21.333 11.947 38.4 27.307 38.4s27.307-17.067 27.307-38.4v-122.88h121.173c22.187 0 40.107-11.947 40.107-27.307s-17.92-27.307-40.107-27.307zM648.533 625.493l-128.853-133.973h104.96c1.637 0.272 3.524 0.427 5.447 0.427 19.323 0 34.987-15.664 34.987-34.987s-15.664-34.987-34.987-34.987c-1.923 0-3.81 0.155-5.649 0.454l0.201-0.027h-104.96v-69.12h104.96c1.637 0.272 3.524 0.427 5.447 0.427 19.323 0 34.987-15.664 34.987-34.987s-15.664-34.987-34.987-34.987c-1.923 0-3.81 0.155-5.649 0.454l0.201-0.027h-104.96v-103.253c-2.727-16.838-17.16-29.539-34.56-29.539s-31.833 12.701-34.533 29.338l-0.027 0.201v101.547h-102.4c-1.637-0.272-3.524-0.427-5.447-0.427-19.323 0-34.987 15.664-34.987 34.987s15.664 34.987 34.987 34.987c1.923 0 3.81-0.155 5.649-0.454l-0.201 0.027h102.4v69.12h-102.4c-1.637-0.272-3.524-0.427-5.447-0.427-19.323 0-34.987 15.664-34.987 34.987s15.664 34.987 34.987 34.987c1.923 0 3.81-0.155 5.649-0.454l-0.201 0.027h102.4v6.827l-128 128c-4.425 5.797-7.089 13.144-7.089 21.114 0 19.323 15.664 34.987 34.987 34.987 8.183 0 15.711-2.81 21.67-7.517l-0.074 0.056 116.053-116.053 109.227 116.053c6.264 6.481 15.035 10.506 24.747 10.506 18.998 0 34.399-15.401 34.399-34.399 0-9.287-3.68-17.714-9.662-23.903l0.009 0.010zM497.493 836.267h-12.8c-229.515 0-415.573-186.059-415.573-415.573s186.059-415.573 415.573-415.573c229.515 0 415.573 186.059 415.573 415.573v0 0c0 19.087 15.473 34.56 34.56 34.56s34.56-15.473 34.56-34.56v0 27.307c0-8.533 0-17.067 0-24.747 0.004-0.76 0.007-1.66 0.007-2.559 0-267.689-217.005-484.693-484.693-484.693s-484.693 217.005-484.693 484.693c0 267.689 217.005 484.693 484.693 484.693 0.298 0 0.595 0 0.893-0.001h11.901c1.637 0.272 3.524 0.427 5.447 0.427 19.323 0 34.987-15.664 34.987-34.987s-15.664-34.987-34.987-34.987c-1.923 0-3.81 0.155-5.649 0.454l0.201-0.027z" />
<glyph unicode="&#xe932;" glyph-name="-11" horiz-adv-x="1315" d="M0 948.87h71.842v-545.391h-71.842v545.391zM1121.138 958.988h71.842v-271.178h-71.842v271.178zM0 888.158v71.842h1192.98v-71.842h-1192.98zM4.047 403.478v71.842h154.814v-71.842h-154.814zM127.494 168.727v71.842h410.814v-71.842h-410.814zM122.435 651.383v71.842h1192.98v-71.842h-1192.98zM122.435 713.107h71.842v-544.379h-71.842v544.379zM1243.573 719.178h71.842v-328.854h-71.842v328.854zM1315.415 243.605v-71.842h-541.344v71.842h541.344zM1080.664-64h-71.842v542.356h71.842v-542.356z" />
<glyph unicode="&#xe933;" glyph-name="-12" horiz-adv-x="1317" d="M878.028 373.916h-790.225c-51.584 0-87.803-21.951-87.803-58.169v-36.219c0-29.633 36.219-51.584 87.803-51.584h790.225c51.584 0 73.535 14.268 73.535 51.584v50.487c0 29.633-21.951 43.901-73.535 43.901zM878.028 80.875h-790.225c-51.584 0-87.803-21.951-87.803-58.169v-36.219c0-29.633 36.219-51.584 87.803-51.584h790.225c51.584 0 73.535 14.268 73.535 51.584v51.584c0 29.633-21.951 43.901-73.535 43.901zM0 886.465v0zM73.535 812.93h804.493c2.461-0.326 5.306-0.512 8.195-0.512 36.369 0 65.852 29.483 65.852 65.852 0 2.889-0.186 5.734-0.547 8.524l0.035-0.33c0.326 2.461 0.512 5.306 0.512 8.195 0 36.369-29.483 65.852-65.852 65.852-2.889 0-5.734-0.186-8.524-0.547l0.33 0.035h-804.493c-40.958-1.113-73.736-34.58-73.736-75.704 0-1.94 0.073-3.864 0.216-5.767l-0.015 0.253c0-43.901 29.633-65.852 73.535-65.852zM1222.654 805.248l-241.458-153.655c-16.944-12.525-27.811-32.432-27.811-54.877s10.867-42.351 27.626-54.746l0.185-0.131 241.458-153.655c9.161-5.559 20.234-8.849 32.076-8.849 34.551 0 62.559 28.009 62.559 62.559 0 1.956-0.090 3.891-0.265 5.802l0.018-0.245v299.627c-0.36 36.094-29.704 65.215-65.849 65.215-10.808 0-21.009-2.604-30.007-7.219l0.371 0.173z" />
<glyph unicode="&#xe934;" glyph-name="-38" horiz-adv-x="1170" d="M389.818 494.545h-186.182c-77.119 0-139.636 62.517-139.636 139.636v0 186.182c0 77.119 62.517 139.636 139.636 139.636v0h186.182c77.119 0 139.636-62.517 139.636-139.636v0-186.182c0-77.119-62.517-139.636-139.636-139.636v0zM203.636 866.909c-25.706 0-46.545-20.839-46.545-46.545v0-186.182c0-25.706 20.839-46.545 46.545-46.545v0h186.182c25.706 0 46.545 20.839 46.545 46.545v0 186.182c0 25.706-20.839 46.545-46.545 46.545v0zM948.364 494.545h-186.182c-77.119 0-139.636 62.517-139.636 139.636v0 186.182c0 77.119 62.517 139.636 139.636 139.636v0h186.182c77.119 0 139.636-62.517 139.636-139.636v0-186.182c0-77.119-62.517-139.636-139.636-139.636v0zM762.182 866.909c-25.706 0-46.545-20.839-46.545-46.545v0-186.182c0-25.706 20.839-46.545 46.545-46.545v0h186.182c25.706 0 46.545 20.839 46.545 46.545v0 186.182c0 25.706-20.839 46.545-46.545 46.545v0zM389.818-64h-186.182c-77.119 0-139.636 62.517-139.636 139.636v0 186.182c0 77.119 62.517 139.636 139.636 139.636v0h186.182c77.119 0 139.636-62.517 139.636-139.636v0-186.182c0-77.119-62.517-139.636-139.636-139.636v0zM203.636 308.364c-25.706 0-46.545-20.839-46.545-46.545v0-186.182c0-25.706 20.839-46.545 46.545-46.545v0h186.182c25.706 0 46.545 20.839 46.545 46.545v0 186.182c0 25.706-20.839 46.545-46.545 46.545v0zM948.364-64h-186.182c-77.119 0-139.636 62.517-139.636 139.636v0 186.182c0 77.119 62.517 139.636 139.636 139.636v0h186.182c77.119 0 139.636-62.517 139.636-139.636v0-186.182c0-77.119-62.517-139.636-139.636-139.636v0zM762.182 308.364c-25.706 0-46.545-20.839-46.545-46.545v0-186.182c0-25.706 20.839-46.545 46.545-46.545v0h186.182c25.706 0 46.545 20.839 46.545 46.545v0 186.182c0 25.706-20.839 46.545-46.545 46.545v0z" />
<glyph unicode="&#xe935;" glyph-name="-13" d="M967.758 402.424h-911.515c-25.171 0-45.576 20.405-45.576 45.576s20.405 45.576 45.576 45.576v0h911.515c25.171 0 45.576-20.405 45.576-45.576s-20.405-45.576-45.576-45.576v0zM512-53.333c-25.171 0-45.576 20.405-45.576 45.576v0 911.515c0 25.171 20.405 45.576 45.576 45.576s45.576-20.405 45.576-45.576v0-911.515c0-25.171-20.405-45.576-45.576-45.576v0z" />
<glyph unicode="&#xe936;" glyph-name="23" d="M972.8 288h-921.6c-19.2 0-38.4-12.8-44.8-32 0-6.4 0-6.4 0-12.8v0c0 0 0 0 0 0s0 0 0-6.4v0c0-12.8 6.4-25.6 12.8-32l249.6-249.6c19.2-19.2 51.2-19.2 70.4 0 6.4 6.4 12.8 19.2 12.8 38.4 0 12.8-6.4 25.6-12.8 38.4l-166.4 166.4h806.4c25.6 0 51.2 19.2 51.2 51.2-6.4 12.8-32 38.4-57.6 38.4zM1011.2 691.2l-256 249.6c-19.2 19.2-51.2 19.2-70.4 0 0 0 0 0 0 0-6.4-6.4-12.8-19.2-12.8-32s6.4-25.6 12.8-32l166.4-166.4h-800c-25.6 0-51.2-25.6-51.2-51.2s19.2-51.2 51.2-51.2h921.6c19.2 0 38.4 12.8 44.8 32 0 6.4 0 6.4 0 12.8v0c0 0 0 0 0 0s0 0 0 6.4v0c6.4 12.8 0 25.6-6.4 32z" />
<glyph unicode="&#xe937;" glyph-name="-14" d="M532.48 430.313h249.484c21.336 0 38.633 17.296 38.633 38.633s-17.296 38.633-38.633 38.633h-156.393l387.258 387.258c6.912 6.908 11.187 16.453 11.187 26.996s-4.275 20.089-11.187 26.996v0c-6.908 6.912-16.453 11.187-26.996 11.187s-20.089-4.275-26.996-11.187l-387.258-387.258v155.462c0 21.336-17.296 38.633-38.633 38.633s-38.633-17.296-38.633-38.633v0-248.553c0-21.079 17.088-38.167 38.167-38.167v0zM984.902 508.509c-21.079 0-38.167-17.088-38.167-38.167v0-279.273c0-98.712-80.022-178.735-178.735-178.735v0h-512c-98.712 0-178.735 80.022-178.735 178.735v0 512.931c0 98.712 80.022 178.735 178.735 178.735v0h272.756c21.336 0 38.633 17.296 38.633 38.633s-17.296 38.633-38.633 38.633h-272.756c-141.385 0-256-114.615-256-256v0-512.931c0.527-140.659 114.411-254.542 255.019-255.069h512.981c140.984 0.529 255.069 114.941 255.069 255.998 0 0 0 0.001 0 0.001v0 279.273c0 21.079-17.088 38.167-38.167 38.167v0z" />
<glyph unicode="&#xe938;" glyph-name="-15" horiz-adv-x="888" d="M750.46 618.075h-27.532v62.168c0.080 2.444 0.126 5.317 0.126 8.201 0 123.846-84.498 227.956-198.988 257.824l-1.853 0.411c-23.212 7.721-49.982 12.536-77.763 13.313l-0.391 0.009c-1.274 0.022-2.776 0.034-4.281 0.034-75.831 0-144.262-31.679-192.782-82.525l-0.099-0.104c-43.192-48.994-69.555-113.721-69.555-184.605 0-4.416 0.102-8.809 0.305-13.175l-0.023 0.619v-58.616h-38.189c-0.001 0-0.002 0-0.003 0-76.695 0-138.928-61.922-139.431-138.498v-407.694c0-77.008 62.427-139.435 139.435-139.435v0h610.137c76.625 0.504 138.546 62.736 138.546 139.432 0 0.001 0 0.002 0 0.003v0 404.094c0 0.003 0 0.007 0 0.011 0 76.383-61.419 138.421-137.564 139.422l-0.094 0.001zM444.059 884.51c0.959 0.016 2.090 0.025 3.223 0.025 19.073 0 37.538-2.603 55.059-7.472l-1.442 0.342c84.579-22.72 145.822-98.705 145.822-188.995 0-2.872-0.062-5.73-0.185-8.573l0.014 0.405v-62.168h-398.765v60.392c-0.185 3.185-0.291 6.911-0.291 10.661 0 107.909 87.477 195.386 195.386 195.386 0.415 0 0.829-0.001 1.243-0.004h-0.064zM811.74 71.882c0.004-0.266 0.006-0.58 0.006-0.894 0-35.806-29.027-64.833-64.833-64.833-0.314 0-0.628 0.002-0.942 0.007l0.048-0.001h-606.585c-0.266-0.004-0.58-0.006-0.894-0.006-35.806 0-64.833 29.027-64.833 64.833 0 0.314 0.002 0.628 0.007 0.942l-0.001-0.048v407.646c-0.004 0.266-0.006 0.58-0.006 0.894 0 35.806 29.027 64.833 64.833 64.833 0.314 0 0.628-0.002 0.942-0.007l-0.048 0.001h610.137c0.266 0.004 0.58 0.006 0.894 0.006 35.806 0 64.833-29.027 64.833-64.833 0-0.314-0.002-0.628-0.007-0.942l0.001 0.048v-406.758zM444.059 413.807c-0.266 0.004-0.58 0.006-0.894 0.006-38.259 0-69.273-31.015-69.273-69.273 0-0.314 0.002-0.628 0.006-0.941v0.047c0.23-25.56 13.921-47.872 34.319-60.214l0.317-0.178v-110.127c2.839-17.524 17.86-30.743 35.969-30.743s33.13 13.219 35.941 30.534l0.028 0.21v110.127c20.716 12.52 34.407 34.832 34.636 60.359v0.033c0.004 0.271 0.006 0.591 0.006 0.911 0 38.259-31.015 69.273-69.273 69.273-0.627 0-1.251-0.008-1.874-0.025l0.092 0.002z" />
<glyph unicode="&#xe939;" glyph-name="-16" horiz-adv-x="917" d="M327.447 698.376h453.26v-44.993h-453.26v44.993zM327.447 572.563h453.26v-44.993h-453.26v44.993zM327.447 448.417h453.26v-44.993h-453.26v44.993zM362.441 825.855h191.635v-44.159h-191.635v42.493zM135.811 698.376h146.643v-44.993h-146.643v44.993zM135.811 572.563h146.643v-44.993h-146.643v44.993zM135.811 448.417h146.643v-44.993h-146.643v44.993zM916.517 341.767v573.24c0.006 0.269 0.009 0.586 0.009 0.903 0 23.513-18.376 42.733-41.55 44.084l-0.119 0.006h-833.198c-0.25 0.005-0.545 0.008-0.841 0.008-24.389 0-44.159-19.771-44.159-44.159 0-0.296 0.003-0.591 0.009-0.885l-0.001 0.044v-933.181c-0.005-0.25-0.008-0.545-0.008-0.841 0-24.389 19.771-44.159 44.159-44.159 0.296 0 0.591 0.003 0.885 0.009l-0.044-0.001h467.424l-44.993 44.993h-422.431v933.181h833.198v-528.247l44.993-55.824v10.832zM708.218 345.1h-40.827v-83.32c1.64-9.533 9.845-16.695 19.722-16.695 0.39 0 0.777 0.011 1.161 0.033l-0.053-0.002c9.859 0.202 18.021 7.223 19.973 16.528l0.024 0.136v38.327c5.052 0.635 10.898 0.997 16.828 0.997 78.688 0 142.477-63.789 142.477-142.477 0-5.931-0.362-11.776-1.066-17.517l0.069 0.689c0.013-0.75 0.020-1.634 0.020-2.52 0-86.050-69.758-155.808-155.808-155.808-0.886 0-1.77 0.007-2.653 0.022l0.133-0.002c-84.929 5.158-152.402 73.209-156.626 157.915l-0.016 0.393c-0.097 1.979-0.152 4.298-0.152 6.63 0 42.153 17.99 80.104 46.711 106.594l0.1 0.091s12.498 23.33 0 32.495c-4.125 3.121-9.342 4.999-14.998 4.999s-10.872-1.878-15.060-5.045l0.063 0.046c-38.503-33.199-62.729-82.042-62.729-136.542 0-3.26 0.087-6.499 0.258-9.717l-0.019 0.449c-0.056-1.751-0.087-3.811-0.087-5.878 0-109.519 88.782-198.301 198.301-198.301 1.496 0 2.987 0.017 4.475 0.049l-0.222-0.004c3.585-0.238 7.772-0.374 11.991-0.374 106.298 0 192.469 86.171 192.469 192.469 0 3.942-0.119 7.856-0.352 11.74l0.026-0.534c0.074 2.022 0.117 4.397 0.117 6.782 0 109.058-88.409 197.468-197.468 197.468-2.385 0-4.76-0.042-7.125-0.126l0.343 0.010zM742.379 95.141c10.34 8.468 16.887 21.236 16.887 35.532 0 10.498-3.53 20.172-9.468 27.899l0.080-0.108c-39.267 32.583-82.995 65.187-128.371 95.518l-5.774 3.633c20.601-61.996 41.745-113.24 65.912-162.738l-3.422 7.763c8.145-10.718 20.9-17.567 35.255-17.567 10.695 0 20.501 3.802 28.142 10.127l-0.074-0.059z" />
<glyph unicode="&#xe93a;" glyph-name="-17" horiz-adv-x="915" d="M913.365 114.846c-3.39 12.093-14.316 20.814-27.279 20.814-0.353 0-0.705-0.006-1.055-0.019l0.051 0.001h-370.171c-10.843-2.132-18.91-11.562-18.91-22.876s8.066-20.743 18.762-22.851l0.148-0.024h324.419l-138.918-108.972c-4.636-3.002-7.962-7.688-9.126-13.174l-0.024-0.136c-1.184-2.699-1.873-5.844-1.873-9.15s0.689-6.452 1.931-9.3l-0.058 0.15c3.966-5.57 10.4-9.159 17.672-9.159 0.221 0 0.441 0.003 0.661 0.010l-0.032-0.001c0.272-0.013 0.592-0.021 0.913-0.021 5.084 0 9.725 1.901 13.249 5.030l-0.021-0.018 175.519 138.086c6.615 5.679 10.779 14.051 10.779 23.395 0 3.536-0.596 6.933-1.694 10.095l0.065-0.216zM521.566 198.031h369.339c10.843 2.132 18.91 11.562 18.91 22.876s-8.066 20.743-18.762 22.851l-0.148 0.024h-323.587l139.75 107.308c3.669 3.367 6.121 8.010 6.648 13.222l0.007 0.088c1.184 2.699 1.873 5.844 1.873 9.15s-0.689 6.452-1.931 9.3l0.058-0.15c-3.904 6.041-10.604 9.982-18.225 9.982-0.027 0-0.053 0-0.080 0h0.004c-5.367-0.064-10.286-1.933-14.19-5.028l0.048 0.037-174.687-138.086c-6.49-5.673-10.567-13.966-10.567-23.212 0-3.296 0.518-6.471 1.477-9.448l-0.061 0.218c3.39-12.093 14.316-20.814 27.279-20.814 0.353 0 0.705 0.006 1.055 0.019l-0.051-0.001zM442.541 960c-167.81-0.444-303.675-136.582-303.675-304.454 0-112.118 60.604-210.081 150.841-262.917l1.438-0.778 14.141-8.318-14.141-4.991c-170.018-64.611-288.65-226.201-288.65-415.5 0-0.148 0-0.297 0-0.445v0.023c0-15.161 12.29-27.451 27.451-27.451v0h525.725c15.161 0 27.451 12.29 27.451 27.451s-12.29 27.451-27.451 27.451v0h-499.106v8.318c19.262 198.126 184.534 351.846 385.889 352.702h21.715c158.186 12.071 281.964 143.392 281.964 303.623 0 168.135-136.292 304.437-304.422 304.455h-0.002zM442.541 405.992c-137.824 0-249.553 111.729-249.553 249.553s111.729 249.553 249.553 249.553c137.824 0 249.553-111.729 249.553-249.553v0c0-137.824-111.729-249.553-249.553-249.553v0z" />
<glyph unicode="&#xe93b;" glyph-name="-18" horiz-adv-x="918" d="M846.91 960h-776.258c-39.020 0-70.652-31.632-70.652-70.652v0-882.695c0-39.020 31.632-70.652 70.652-70.652h777.176c39.020 0 70.652 31.632 70.652 70.652v0 882.695c0 39.020-31.632 70.652-70.652 70.652v0zM868.932 11.24c0-13.176-10.681-23.857-23.857-23.857h-775.341c-13.176 0-23.857 10.681-23.857 23.857v0 875.355c1.84 11.504 11.692 20.188 23.573 20.188 0.1 0 0.199-0.001 0.299-0.002h776.243c13.176 0 23.857-10.681 23.857-23.857v0-875.355zM389.047 310.366l-39.455 78.91-39.455-78.91-91.756-12.846 63.312-61.477-6.423-87.168 77.993 41.29 77.993-41.29-14.681 87.168 63.312 61.477-91.756 12.846zM205.534 792.086h490.896v-48.631h-487.226v48.631zM205.534 647.111h490.896v-48.631h-487.226v48.631zM480.803 485.62c32.115-18.351 38.538-31.197 38.538-31.197h183.513v48.631h-272.516c19.649-2.083 37.425-8.642 52.761-18.632l-0.46 0.281zM345.921 479.197c-118.799-1.043-214.702-97.591-214.702-216.537 0-119.594 96.95-216.545 216.545-216.545s216.545 96.95 216.545 216.545c0 0.642-0.003 1.284-0.008 1.925l0.001-0.098c-1.039 118.803-97.588 214.71-216.537 214.71-0.003 0-0.006 0-0.008 0h0.001zM345.921 75.47c-101.351 0-183.513 82.161-183.513 183.513s82.161 183.513 183.513 183.513c101.351 0 183.513-82.161 183.513-183.513v0c0-101.351-82.161-183.513-183.513-183.513v0z" />
<glyph unicode="&#xe93c;" glyph-name="-19" horiz-adv-x="984" d="M432.014 448c-132.548 0-240 107.452-240 240s107.452 240 240 240c132.548 0 240-107.452 240-240v0c0-132.548-107.452-240-240-240v0zM432.014 868c-99.412 0-180-80.588-180-180s80.588-180 180-180c99.412 0 180 80.588 180 180v0c0 99.412-80.588 180-180 180v0zM42.014-2c-16.568 0-30 13.432-30 30v0c-0.018 1.427-0.027 3.113-0.027 4.8 0 231.96 188.040 420 420 420 0.009 0 0.020 0 0.029 0h-0.002c71.095-0.101 138.023-17.851 196.664-49.102l-2.264 1.102c8.514-5.391 14.086-14.76 14.086-25.431 0-16.568-13.432-30-30-30-4.45 0-8.675 0.969-12.473 2.707l0.188-0.077c-47.681 25.701-104.353 40.804-164.552 40.804-0.579 0-1.159-0.001-1.738-0.004h0.090c-0.009 0-0.021 0-0.032 0-198.822 0-360-161.178-360-360 0-1.687 0.011-3.373 0.035-5.055l-0.003 0.255c0-16.568-13.432-30-30-30v0zM942.014 118h-300c-16.568 0-30 13.432-30 30s13.432 30 30 30v0h300c16.568 0 30-13.432 30-30s-13.432-30-30-30v0zM792.014-32c-16.568 0-30 13.432-30 30v0 300c0 16.568 13.432 30 30 30s30-13.432 30-30v0-300c0-16.568-13.432-30-30-30v0z" />
<glyph unicode="&#xe93d;" glyph-name="-37" horiz-adv-x="920" d="M116.193 512.784c24.007 0 43.468 19.461 43.468 43.468v0c0.266 1.225 0.418 2.631 0.418 4.074 0 11.080-8.982 20.062-20.062 20.062s-20.062-8.982-20.062-20.062c0-1.442 0.152-2.849 0.441-4.205l-0.023 0.131ch-7.523v95.295l24.242 20.898v8.359c-0.015 0.994-0.023 2.168-0.023 3.344 0 132.972 107.795 240.768 240.768 240.768 131.797 0 238.86-105.898 240.742-237.247l0.002-0.177v-12.539l39.288-14.211s0 0 0-5.016v-101.146c-1.218-2.168-3.318-3.718-5.8-4.172l-0.051-0.008c-0.206 0.879-0.324 1.889-0.324 2.926s0.118 2.047 0.341 3.016l-0.017-0.090c-1.956 9.193-10.006 15.988-19.644 15.988s-17.688-6.796-19.621-15.857l-0.023-0.131c-0.135-1.261-0.212-2.724-0.212-4.205 0-22.57 17.89-40.961 40.263-41.768l0.074-0.002c0.020 0 0.044 0 0.068 0 24.509 0 44.539 19.179 45.902 43.347l0.005 0.121v106.162c-1.262 17.341-12.146 31.863-27.291 38.34l-0.294 0.112-13.375 5.016c-7.094 69.115-37.702 129.999-83.574 175.525l-0.018 0.018c-49.717 48.76-117.892 78.855-193.097 78.855s-143.381-30.095-193.141-78.898l0.044 0.043c-49.065-46.060-81.907-108.895-89.336-179.308l-0.107-1.251-10.867-10.031c-9.246-8.16-15.047-20.037-15.047-33.269 0-0.059 0-0.118 0-0.176v0.009-97.802c0-24.007 19.461-43.468 43.468-43.468v0zM61.858 142.472c-0.081-0.001-0.177-0.002-0.272-0.002-6.558 0-12.438 2.905-16.423 7.498l-0.023 0.027c-2.431 3.547-3.882 7.932-3.882 12.655 0 1.736 0.196 3.427 0.567 5.051l-0.029-0.152c23.472 170.693 168.303 300.783 343.547 300.931h0.015c0.21 0 0.459 0.001 0.708 0.001 35.84 0 70.394-5.501 102.866-15.705l-2.428 0.658c15.476 8.592 33.479 16.26 52.31 22.035l2.025 0.534c-15.733 7.241-34.631 14.089-54.15 19.434l-2.692 0.628c61.812 35.194 102.818 100.637 102.818 175.656 0 111.261-90.195 201.456-201.456 201.456s-201.456-90.195-201.456-201.456c0-75.020 41.006-140.462 101.826-175.136l0.992-0.521c-150.486-40.469-263.115-166.019-283.993-320.68l-0.219-1.985c-0.361-2.511-0.567-5.411-0.567-8.36 0-34.069 27.542-61.705 61.575-61.857h285.063c-4 10.755-7.75 23.922-10.547 37.438l-0.32 1.851zM220.682 670.772c-0.001 0.248-0.002 0.542-0.002 0.836 0 89.563 72.605 162.168 162.168 162.168s162.168-72.605 162.168-162.168c0-89.562-72.604-162.167-162.166-162.168v0c-0.001 0-0.001 0-0.002 0-89.269 0-161.691 72.129-162.166 161.287v0.045zM657.868 458.449c-144.31-0.474-261.169-117.332-261.642-261.597v-0.045c0.474-144.31 117.332-261.169 261.597-261.642h0.045c144.31 0.474 261.169 117.332 261.642 261.597v0.045c-0.474 144.31-117.332 261.169-261.597 261.642h-0.045zM657.868-27.22c-1.027-0.017-2.238-0.027-3.451-0.027-40.939 0-79.264 11.19-112.084 30.678l1.015-0.558c-35.086 20.169-63.423 48.506-83.020 82.515l-0.572 1.077c-18.565 32.070-29.519 70.553-29.519 111.595s10.955 79.525 30.1 112.685l-0.58-1.090c20.169 35.086 48.506 63.423 82.515 83.020l1.077 0.572c32.271 18.861 71.051 29.997 112.431 29.997s80.159-11.136 113.504-30.575l-1.073 0.578c35.086-20.169 63.423-48.506 83.020-82.515l0.572-1.077c18.861-32.271 29.997-71.051 29.997-112.431s-11.136-80.159-30.575-113.504l0.578 1.073c-20.169-35.086-48.506-63.423-82.515-83.020l-1.077-0.572c-31.797-18.918-70.111-30.101-111.036-30.101-0.637 0-1.274 0.003-1.91 0.008l0.097-0.001zM751.491 196.807h-93.623v131.239c0.409 1.377 0.645 2.96 0.645 4.598s-0.235 3.22-0.674 4.716l0.030-0.118c-1.74 2.71-3.977 4.947-6.601 6.635l-0.086 0.052c-1.377 0.409-2.96 0.645-4.598 0.645s-3.22-0.235-4.716-0.674l0.118 0.030h-13.375c-0.142-0.879-0.224-1.893-0.224-2.926s0.081-2.046 0.238-3.035l-0.014 0.109c-0.195-1.005-0.307-2.161-0.307-3.344s0.112-2.338 0.325-3.458l-0.018 0.115v-149.629c0.438-9.975 8.415-17.952 18.35-18.389l0.041-0.001h112.013c10.387 0 18.808 8.421 18.808 18.808s-8.421 18.808-18.808 18.808v0z" />
<glyph unicode="&#xe93e;" glyph-name="-20" horiz-adv-x="972" d="M384 384c-141.385 0-256 114.615-256 256s114.615 256 256 256c141.385 0 256-114.615 256-256v0c0-141.385-114.615-256-256-256v0zM384 832c-106.039 0-192-85.961-192-192s85.961-192 192-192c106.039 0 192 85.961 192 192v0c0 106.039-85.961 192-192 192v0zM736 0c-17.673 0-32 14.327-32 32v0c-9.56 161.222-142.642 288.348-305.415 288.348-5.13 0-10.231-0.126-15.299-0.376l0.714 0.028c-4.355 0.222-9.455 0.348-14.585 0.348-162.773 0-295.855-127.126-305.375-287.509l-0.040-0.839c0-17.673-14.327-32-32-32s-32 14.327-32 32v0c9.32 196.513 170.911 352.309 368.89 352.309 5.314 0 10.602-0.112 15.861-0.334l-0.751 0.025c4.508 0.197 9.796 0.309 15.11 0.309 197.979 0 359.569-155.796 368.858-351.475l0.032-0.834c0-17.673-14.327-32-32-32v0zM736 0c-0.033 0-0.072 0-0.112 0-17.673 0-32 14.327-32 32 0 4.63 0.983 9.030 2.753 13.004l-0.081-0.204 192 448c5.15 12.129 16.959 20.48 30.72 20.48 18.38 0 33.28-14.9 33.28-33.28 0-4.619-0.941-9.019-2.642-13.018l0.082 0.218-192-448c-5.041-11.455-16.291-19.308-29.375-19.308-0.924 0-1.839 0.039-2.743 0.116l0.118-0.008zM992 800h-192c-17.673 0-32 14.327-32 32s14.327 32 32 32v0h192c17.673 0 32-14.327 32-32s-14.327-32-32-32v0zM992 608h-64c-17.673 0-32 14.327-32 32s14.327 32 32 32v0h64c17.673 0 32-14.327 32-32s-14.327-32-32-32v0z" />
<glyph unicode="&#xe93f;" glyph-name="-21" horiz-adv-x="1114" d="M762.466 347.75c-113.768 0-205.994 92.226-205.994 205.994s92.226 205.994 205.994 205.994c113.768 0 205.994-92.226 205.994-205.994v0c0-113.768-92.226-205.994-205.994-205.994v0zM762.466 691.073c-75.844 0-137.329-61.485-137.329-137.329s61.485-137.329 137.329-137.329c75.844 0 137.329 61.485 137.329 137.329v0c0 75.844-61.485 137.329-137.329 137.329v0zM1071.458-23.040h-617.983c-18.961 0-34.332 15.371-34.332 34.332v0c0 189.612 153.711 343.324 343.324 343.324s343.324-153.711 343.324-343.324v0c0-18.961-15.371-34.332-34.332-34.332v0zM487.807 45.625h549.318c-17.302 136.554-132.744 241.083-272.599 241.083s-255.297-104.53-272.458-239.725l-0.141-1.358zM303.099 195.314h-6.866c-31.51 7.35-59.216 17.733-85.088 31.159l2.004-0.946c-122.336 60.754-204.938 184.84-204.938 328.217 0 201.748 163.549 365.296 365.296 365.296 0.112 0 0.223 0 0.335 0h-0.017c59.325-0.121 115.308-14.313 164.826-39.414l-2.091 0.961c10.034-6.113 16.631-16.995 16.631-29.417 0-18.961-15.371-34.332-34.332-34.332-4.763 0-9.3 0.97-13.423 2.723l0.224-0.085c-38.226 19.484-83.368 30.9-131.176 30.9-0.232 0-0.465 0-0.696-0.001h0.036c-0.004 0-0.011 0-0.016 0-163.825 0-296.632-132.806-296.632-296.632 0-115.799 66.354-216.099 163.113-264.955l1.698-0.778c19.741-10.047 42.671-18.325 66.706-23.667l1.959-0.366c17.381-1.968 30.763-16.587 30.763-34.332 0-19.076-15.464-34.539-34.539-34.539-1.33 0-2.644 0.075-3.934 0.222l0.158-0.015zM256.407 448c-0.18-0.003-0.393-0.005-0.606-0.005-18.961 0-34.332 15.371-34.332 34.332 0 12.042 6.199 22.636 15.58 28.764l0.132 0.080 94.757 60.425v129.090c0 18.961 15.371 34.332 34.332 34.332s34.332-15.371 34.332-34.332v0-146.943c0.001-0.117 0.002-0.255 0.002-0.394 0-11.788-5.941-22.187-14.99-28.369l-0.118-0.076-110.55-76.904c-2.778-0.809-5.97-1.275-9.27-1.275s-6.492 0.466-9.512 1.335l0.242-0.060z" />
<glyph unicode="&#xe940;" glyph-name="-22" d="M830.293-64h-636.587c-106.981 0-193.707 86.725-193.707 193.707v0 636.587c0 106.981 86.725 193.707 193.707 193.707v0h426.667c18.851 0 34.133-15.282 34.133-34.133s-15.282-34.133-34.133-34.133h-426.667c-69.279 0-125.44-56.161-125.44-125.44v0-637.44c0.484-68.911 56.459-124.587 125.437-124.587 0.001 0 0.002 0 0.003 0h637.44c69.279 0 125.44 56.161 125.44 125.44v384.853c0 18.851 15.282 34.133 34.133 34.133s34.133-15.282 34.133-34.133v-384.853c0 0 0-0.001 0-0.002 0-106.981-86.725-193.707-193.707-193.707-0.3 0-0.6 0.001-0.9 0.002h0.046zM478.72 248.32l-222.72 276.48c-5.99 6.144-9.684 14.55-9.684 23.819 0 18.851 15.282 34.133 34.133 34.133 11.831 0 22.256-6.019 28.38-15.162l0.078-0.123 174.933-216.747 454.827 453.973c6.065 5.616 14.211 9.061 23.162 9.061 18.851 0 34.133-15.282 34.133-34.133 0-8.738-3.284-16.71-8.684-22.747l0.029 0.033-506.027-512z" />
<glyph unicode="&#xe941;" glyph-name="7" horiz-adv-x="710" d="M627.187 955.941c0.135 0.001 0.295 0.001 0.455 0.001 22.839 0 43.503-9.314 58.4-24.352l0.006-0.006c15.049-14.592 24.39-34.998 24.39-57.585 0-0.806-0.012-1.609-0.036-2.41l0.003 0.117v-64.951c0.008-0.434 0.013-0.946 0.013-1.459 0-22.845-9.319-43.514-24.363-58.412l-0.007-0.007c-14.59-15.036-34.987-24.367-57.563-24.367-0.457 0-0.913 0.004-1.368 0.011l0.068-0.001h-541.939c-0.304-0.004-0.662-0.006-1.021-0.006-46.521 0-84.234 37.713-84.234 84.234 0 0.359 0.002 0.718 0.007 1.076l-0.001-0.054v69.011c-0.021 0.683-0.033 1.486-0.033 2.292 0 22.587 9.34 42.993 24.369 57.565l0.021 0.020c14.382 12.188 33.148 19.599 53.646 19.599 2.551 0 5.075-0.115 7.568-0.339l-0.321 0.023h541.939zM627.187 566.232c0.261 0.003 0.569 0.005 0.877 0.005 22.708 0 43.238-9.322 57.973-24.348l0.013-0.013c15.051-14.904 24.37-35.573 24.37-58.418 0-0.513-0.005-1.025-0.014-1.535l0.001 0.077v-64.951c-0.565-45.731-37.488-82.654-83.165-83.219l-0.054-0.001h-541.939c-0.434-0.008-0.946-0.013-1.459-0.013-22.845 0-43.514 9.319-58.412 24.363l-0.007 0.007c-15.039 14.747-24.362 35.278-24.362 57.985 0 0.308 0.002 0.616 0.005 0.924v-0.047 63.937c-0.004 0.304-0.006 0.662-0.006 1.021 0 46.521 37.713 84.234 84.234 84.234 0.359 0 0.718-0.002 1.076-0.007l-0.054 0.001zM627.187 170.434c45.731-0.565 82.654-37.488 83.219-83.165l0.001-0.054v-64.951c0.008-0.434 0.013-0.946 0.013-1.459 0-22.845-9.319-43.514-24.363-58.412l-0.007-0.007c-14.59-15.036-34.987-24.367-57.563-24.367-0.457 0-0.913 0.004-1.368 0.011l0.068-0.001h-541.939c-0.304-0.004-0.662-0.006-1.021-0.006-46.521 0-84.234 37.713-84.234 84.234 0 0.359 0.002 0.718 0.007 1.076l-0.001-0.054v64.951c0.495 21.936 9.726 41.625 24.336 55.798l0.020 0.020c14.904 15.051 35.573 24.37 58.418 24.37 0.513 0 1.025-0.005 1.535-0.014l-0.077 0.001z" />
<glyph unicode="&#xe942;" glyph-name="-23" horiz-adv-x="1138" d="M175.043 671.179c79.154 139.29 226.527 231.718 395.487 231.718 230.874 0 421.441-172.577 449.737-395.767l0.232-2.241h57.764c-29.257 257.071-245.534 454.944-508.028 454.944-185.625 0-348.139-98.952-437.671-246.984l-1.283-2.285-131.282 135.658v-284.444h284.444l-109.402 109.402zM739.556 448c31.419 0 56.889 25.47 56.889 56.889s-25.47 56.889-56.889 56.889h-56.889l54.263 105.901c1.433 4.438 2.26 9.545 2.26 14.844 0 24.328-17.414 44.589-40.457 48.997l-0.312 0.050c-4.13 1.023-8.872 1.61-13.751 1.61-25.923 0-47.975-16.574-56.138-39.703l-0.128-0.417-59.515-131.282-57.764 132.157c-6.777 24.523-28.889 42.232-55.138 42.232-31.541 0-57.111-25.569-57.111-57.111 0-5.292 0.72-10.417 2.067-15.28l-0.095 0.401 54.263-102.4h-56.889c-31.419 0-56.889-25.47-56.889-56.889s25.47-56.889 56.889-56.889h113.778v-113.778h-118.154c-31.419 0-56.889-25.47-56.889-56.889s25.47-56.889 56.889-56.889v0h113.778v-113.778c0-31.419 25.47-56.889 56.889-56.889s56.889 25.47 56.889 56.889v113.778h113.778c31.419 0 56.889 25.47 56.889 56.889s-25.47 56.889-56.889 56.889v0h-109.402v113.778zM853.333 334.222l109.402-109.402c-79.154-139.29-226.527-231.718-395.487-231.718-230.874 0-421.441 172.577-449.737 395.767l-0.232 2.241h-56.889c29.837-256.496 245.832-453.712 507.89-453.712 185.12 0 347.255 98.414 436.938 245.777l1.277 2.26 132.157-132.157v280.944z" />
<glyph unicode="&#xe943;" glyph-name="uniE943" d="M672 403.2h-134.4v64h140.8c12.8 0 25.6 12.8 25.6 25.6s-12.8 25.6-25.6 25.6h-128l115.2 134.4c6.4 12.8 6.4 25.6 0 32-12.8 6.4-25.6 6.4-32 0l-121.6-140.8-115.2 134.4c-6.4 6.4-12.8 6.4-19.2 6.4s-12.8 0-19.2-6.4c0 0-6.4-6.4-6.4-12.8s0-12.8 6.4-19.2l115.2-134.4h-128c-12.8 0-19.2-12.8-19.2-25.6s12.8-25.6 25.6-25.6h140.8v-64h-147.2c-12.8 0-25.6-12.8-25.6-25.6s12.8-25.6 25.6-25.6h140.8v-89.6c0-12.8 12.8-25.6 25.6-25.6s25.6 12.8 25.6 25.6v96h140.8c12.8 0 25.6 12.8 25.6 25.6-6.4 12.8-12.8 25.6-32 25.6zM998.4 460.8c-12.8 12.8-32 25.6-51.2 25.6h-96v339.2c0 64-32 96-102.4 96h-480c-32 0-57.6-6.4-76.8-25.6s-25.6-38.4-25.6-70.4v-339.2h-89.6c-12.8 0-19.2 0-19.2 0-32-19.2-57.6-51.2-57.6-83.2 0-19.2 6.4-38.4 19.2-57.6v0l390.4-339.2c32-25.6 64-32 102.4-32s76.8 12.8 102.4 38.4l390.4 339.2c12.8 12.8 19.2 32 19.2 51.2s-6.4 38.4-25.6 57.6zM966.4 384l-384-332.8c-19.2-19.2-44.8-25.6-70.4-25.6-19.2 0-38.4 0-70.4 25.6l-384 332.8c-6.4 6.4-6.4 12.8-6.4 19.2 0 12.8 6.4 25.6 19.2 25.6v0 0c0 0 0 0 6.4 0h140.8v396.8c0 19.2 0 32 12.8 38.4 6.4 6.4 19.2 12.8 38.4 12.8h486.4c19.2 0 32 0 38.4-12.8 6.4-6.4 12.8-19.2 12.8-38.4v-390.4h140.8c12.8 0 25.6-12.8 25.6-25.6s-6.4-19.2-6.4-25.6z" />
<glyph unicode="&#xe944;" glyph-name="-25" horiz-adv-x="1360" d="M1360.152 613.161c2.549-4.809 4.045-10.513 4.045-16.567 0-13.882-7.869-25.927-19.39-31.915l-0.199-0.094-644.129-326.436c-4.809-2.549-10.513-4.045-16.567-4.045-13.882 0-25.927 7.869-31.915 19.39l-0.094 0.199c-2.549 4.809-4.045 10.513-4.045 16.567 0 13.882 7.869 25.927 19.39 31.915l0.199 0.094 640.243 326.436c4.809 2.549 10.513 4.045 16.567 4.045 13.882 0 25.927-7.869 31.915-19.39l0.094-0.199zM0 613.161c-2.549-4.809-4.045-10.513-4.045-16.567 0-13.882 7.869-25.927 19.39-31.915l0.199-0.094 639.271-326.436c4.809-2.549 10.513-4.045 16.567-4.045 13.882 0 25.927 7.869 31.915 19.39l0.094 0.199c2.549 4.809 4.045 10.513 4.045 16.567 0 13.882-7.869 25.927-19.39 31.915l-0.199 0.094-635.385 326.436c-5.531 3.647-12.316 5.818-19.607 5.818-14.573 0-27.121-8.672-32.764-21.137l-0.092-0.226zM1360.152 582.072c2.549 4.809 4.045 10.513 4.045 16.567 0 13.882-7.869 25.927-19.39 31.915l-0.199 0.094-644.129 325.465c-4.809 2.549-10.513 4.045-16.567 4.045-13.882 0-25.927-7.869-31.915-19.39l-0.094-0.199c-2.549-4.809-4.045-10.513-4.045-16.567 0-13.882 7.869-25.927 19.39-31.915l0.199-0.094 640.243-326.436c4.809-2.549 10.513-4.045 16.567-4.045 13.882 0 25.927 7.869 31.915 19.39l0.094 0.199zM0 582.072c-2.549 4.809-4.045 10.513-4.045 16.567 0 13.882 7.869 25.927 19.39 31.915l0.199 0.094 644.129 325.465c4.809 2.549 10.513 4.045 16.567 4.045 13.882 0 25.927-7.869 31.915-19.39l0.094-0.199c2.549-4.809 4.045-10.513 4.045-16.567 0-13.882-7.869-25.927-19.39-31.915l-0.199-0.094-640.243-325.465c-5.531-3.647-12.316-5.818-19.607-5.818-14.573 0-27.121 8.672-32.764 21.137l-0.092 0.226zM1003.598 438.285c-19.853 0-35.947-16.094-35.947-35.947v0-326.436l-34.975-15.545c-74.092-33.27-160.597-52.651-251.628-52.651s-177.536 19.38-255.613 54.24l3.985-1.589-40.805 15.545v327.408c0 19.853-16.094 35.947-35.947 35.947s-35.947-16.094-35.947-35.947v-343.924c0-0.014 0-0.030 0-0.046 0-16.412 7.536-31.063 19.336-40.683l0.095-0.075 19.431-9.715h4.858c91.815-46.328 200.128-73.458 314.778-73.458s222.963 27.13 318.869 75.32l-4.091-1.863h4.858l19.431 10.687c11.895 9.695 19.431 24.347 19.431 40.758 0 0.016 0 0.033 0 0.049v-0.003 342.953c0 19.853-16.094 35.947-35.947 35.947v0zM177.791 247.863v276.888c0 19.853-16.094 35.947-35.947 35.947s-35.947-16.094-35.947-35.947v-276.888c-21.482-12.344-35.76-35.087-35.947-61.18v-0.026c-0.005-0.312-0.008-0.681-0.008-1.051 0-39.706 32.188-71.894 71.894-71.894s71.894 32.188 71.894 71.894c0 26.467-14.302 49.594-35.6 62.074l-0.339 0.184z" />
<glyph unicode="&#xe945;" glyph-name="-26" horiz-adv-x="875" d="M446.77-19.542h-330.158c-64.403 0-116.612 52.209-116.612 116.612v0 746.317c1.228 63.456 52.957 114.426 116.592 114.426 0.007 0 0.014 0 0.022 0h634.077c64.403 0 116.612-52.209 116.612-116.612v0l7.288-627.519c0-20.126-16.315-36.441-36.441-36.441s-36.441 16.315-36.441 36.441v0l-7.288 627.519c-0.781 23.831-19.899 42.949-43.657 43.728l-0.073 0.002h-634.078c-22.853-1.337-41.208-18.939-43.71-41.332l-0.019-0.211v-746.317c0.782-24.635 20.552-44.405 45.114-45.185l0.073-0.002h328.7c19.561-0.4 35.313-16.152 35.712-35.675l0.001-0.038c0.005-0.219 0.008-0.478 0.008-0.737 0-19.321-15.663-34.984-34.984-34.984-0.259 0-0.517 0.003-0.775 0.008l0.038-0.001zM801.708 49.697h-212.088c-20.126 0-36.441 16.315-36.441 36.441s16.315 36.441 36.441 36.441v0h212.088c19.561-0.4 35.313-16.152 35.712-35.675l0.001-0.038c0.005-0.219 0.008-0.478 0.008-0.737 0-19.321-15.663-34.984-34.984-34.984-0.259 0-0.517 0.003-0.775 0.008l0.038-0.001zM698.944-62.542c-19.561 0.4-35.313 16.152-35.712 35.675l-0.001 0.038v225.936c0 20.126 16.315 36.441 36.441 36.441s36.441-16.315 36.441-36.441v0-228.122c-0.4-19.561-16.152-35.313-35.675-35.712l-0.038-0.001zM663.231 700.538h-337.446c-20.126 0-36.441 16.315-36.441 36.441s16.315 36.441 36.441 36.441v0h337.446c20.126 0 36.441-16.315 36.441-36.441s-16.315-36.441-36.441-36.441v0zM663.231 515.416h-337.446c-20.126 0-36.441 16.315-36.441 36.441s16.315 36.441 36.441 36.441v0h337.446c20.126 0 36.441-16.315 36.441-36.441s-16.315-36.441-36.441-36.441v0zM663.231 327.379h-337.446c-20.126 0-36.441 16.315-36.441 36.441s16.315 36.441 36.441 36.441v0h337.446c20.126 0 36.441-16.315 36.441-36.441s-16.315-36.441-36.441-36.441v0zM218.648 700.538h-64.137c-20.126 0-36.441 16.315-36.441 36.441s16.315 36.441 36.441 36.441v0h64.137c20.126 0 36.441-16.315 36.441-36.441s-16.315-36.441-36.441-36.441v0zM218.648 515.416h-64.137c-20.126 0-36.441 16.315-36.441 36.441s16.315 36.441 36.441 36.441v0h64.137c20.126 0 36.441-16.315 36.441-36.441s-16.315-36.441-36.441-36.441v0zM218.648 327.379h-64.137c-20.126 0-36.441 16.315-36.441 36.441s16.315 36.441 36.441 36.441v0h64.137c20.126 0 36.441-16.315 36.441-36.441s-16.315-36.441-36.441-36.441v0z" />
<glyph unicode="&#xe946;" glyph-name="-27" horiz-adv-x="1017" d="M640-32c-8.784 0.129-16.691 3.778-22.395 9.595l-192.005 192.005c-5.815 5.815-9.411 13.847-9.411 22.72 0 17.745 14.386 32.131 32.131 32.131 8.873 0 16.905-3.596 22.72-9.411l156.16-156.16 277.76 778.88-784.64-336.64 94.080-94.72c5.815-5.815 9.411-13.847 9.411-22.72 0-17.745-14.386-32.131-32.131-32.131-8.873 0-16.905 3.596-22.72 9.411l-128 128c-5.938 5.814-9.62 13.913-9.62 22.872 0 13.295 8.108 24.697 19.649 29.529l0.211 0.078 896 384c3.664 1.584 7.929 2.505 12.41 2.505 8.601 0 16.41-3.394 22.16-8.915l-0.011 0.010c6.234-5.853 10.117-14.147 10.117-23.348 0-3.788-0.658-7.423-1.867-10.795l0.070 0.223-320-896c-3.726-10.267-12.269-17.965-22.823-20.437l-0.217-0.043zM320 32c-17.673 0-32 14.327-32 32v0 256c0.195 9.413 4.345 17.819 10.849 23.653l0.031 0.027 640 576c5.433 4.391 12.424 7.049 20.037 7.049 17.673 0 32-14.327 32-32 0-8.729-3.495-16.641-9.161-22.414l0.005 0.005-629.76-566.4v-241.92c0-17.673-14.327-32-32-32v0z" />
<glyph unicode="&#xe947;" glyph-name="-28" horiz-adv-x="1190" d="M602.703 319.628l251.787 251.787-219.075 220.066-500.6-500.6-32.712-33.704c-17.232-16.353-31.004-36.167-40.227-58.348l-0.416-1.129c-5.316-10.738-10.369-23.555-14.39-36.821l-0.479-1.839q-8.922-27.756-18.834-61.46l-18.834-64.434c-3.999-12.822-7.789-28.861-10.575-45.241l-0.329-2.34c-1.297-4.473-2.043-9.611-2.043-14.923 0-10.602 2.972-20.511 8.129-28.937l-0.138 0.243q10.904-12.887 41.634-8.922l53.53 19.826 65.425 18.834 66.416 22.8 47.582 19.826c12.107 5.321 22.544 11.625 32.040 19.075l-0.318-0.241 23.791 18.834 28.747 27.756 62.451 62.451 84.259 83.268 93.181 99.129zM959.566 675.5l43.617 43.617c7.869 8.354 14.238 18.225 18.612 29.112l0.222 0.627c3.718 9.098 5.898 19.652 5.948 30.71v0.020c0.459 4.31 0.72 9.311 0.72 14.374s-0.262 10.063-0.772 14.99l0.052-0.617c-1.965 9.419-4.7 17.706-8.241 25.551l0.31-0.768c-12.604 25.889-28.177 48.114-46.688 67.51l0.097-0.103c-16.019 17.272-34.669 31.812-55.371 43.054l-1.133 0.563-24.782 10.904c-9.734 2.88-20.956 4.671-32.552 4.953l-0.16 0.003c-5.215 0.9-11.221 1.415-17.348 1.415s-12.132-0.515-17.977-1.503l0.63 0.088c-12.948-3.98-24.179-10.083-33.885-17.986l0.181 0.143-31.721-28.747-33.704-30.73 216.101-224.031 17.843 16.852zM577.921 75.772l-111.024-138.78h722.649v138.78h-611.624z" />
<glyph unicode="&#xe948;" glyph-name="-29" horiz-adv-x="1075" d="M921.5 0h-768c-53.019 0-96 42.981-96 96v0 704c0 53.019 42.981 96 96 96v0h768c53.019 0 96-42.981 96-96v0-704c0-53.019-42.981-96-96-96v0zM153.5 832c-17.673 0-32-14.327-32-32v0-704c0-17.673 14.327-32 32-32v0h768c17.673 0 32 14.327 32 32v0 704c0 17.673-14.327 32-32 32v0zM953.5 544h-832c-17.673 0-32 14.327-32 32s14.327 32 32 32v0h832c17.673 0 32-14.327 32-32s-14.327-32-32-32v0zM345.5 32c-17.673 0-32 14.327-32 32v0 512c0 17.673 14.327 32 32 32s32-14.327 32-32v0-512c0-17.673-14.327-32-32-32v0z" />
<glyph unicode="&#xe949;" glyph-name="-30" d="M387.413 542.72c13.561-16.536 33.993-27.003 56.87-27.003 40.53 0 73.387 32.856 73.387 73.387 0 22.877-10.467 43.308-26.874 56.767l-0.129 0.103-21.333 21.333h482.133c2.371-0.272 5.118-0.427 7.902-0.427 40.53 0 73.387 32.856 73.387 73.387s-32.856 73.387-73.387 73.387c-2.784 0-5.531-0.155-8.234-0.457l0.332 0.030h-482.133l21.333 21.333c14.821 13.477 24.087 32.837 24.087 54.361 0 40.53-32.856 73.387-73.387 73.387-21.312 0-40.502-9.084-53.909-23.592l-0.045-0.049-146.773-149.333c-6.38-6.447-11.564-14.092-15.18-22.566l-0.18-0.474c-3.687-8.292-5.876-17.958-5.973-28.124v-0.036c-0.002-0.2-0.003-0.436-0.003-0.673 0-20.075 8.156-38.246 21.334-51.379l0.002-0.002 146.773-143.36zM73.387 521.387c40.53 0 73.387 32.856 73.387 73.387v0 291.84c0 40.53-32.856 73.387-73.387 73.387s-73.387-32.856-73.387-73.387v0-292.693c0-40.53 32.856-73.387 73.387-73.387v0zM950.613 374.613c-40.53 0-73.387-32.856-73.387-73.387v0-292.693c4.123-36.987 35.213-65.485 72.96-65.485s68.837 28.498 72.93 65.152l0.030 0.332v293.547c0 40.53-32.856 73.387-73.387 73.387v0zM798.72 184.32c-3.796 8.948-8.98 16.593-15.366 23.046l0.006-0.006-146.773 145.92c-13.561 16.536-33.993 27.003-56.87 27.003-40.53 0-73.387-32.856-73.387-73.387 0-22.877 10.467-43.308 26.874-56.767l0.129-0.103 21.333-21.333h-481.28c-36.987-4.123-65.485-35.213-65.485-72.96s28.498-68.837 65.152-72.93l0.332-0.030h481.28l-21.333-21.333c-16.536-13.561-27.003-33.993-27.003-56.87 0-40.53 32.856-73.387 73.387-73.387 22.877 0 43.308 10.467 56.767 26.874l0.103 0.129 146.773 148.48c13.181 13.135 21.336 31.305 21.336 51.381 0 0.237-0.001 0.473-0.003 0.709v-0.036c-0.097 10.202-2.286 19.868-6.156 28.624l0.183-0.464z" />
<glyph unicode="&#xe94a;" glyph-name="-31" horiz-adv-x="1060" d="M512.442-64.884c-282.253 0.361-510.925 229.255-510.925 511.558 0 282.526 229.032 511.558 511.558 511.558s511.558-229.032 511.558-511.558c0-100.885-29.203-194.949-79.618-274.2l1.234 2.076c-7.946-12.594-21.785-20.838-37.55-20.838-24.439 0-44.251 19.812-44.251 44.251 0 8.674 2.496 16.766 6.809 23.596l-0.107-0.182c38.652 62.547 61.555 138.375 61.555 219.553 0 233.242-189.080 422.323-422.323 422.323s-422.323-189.080-422.323-422.323c0-233.242 189.080-422.323 422.323-422.323 52.442 0 102.651 9.558 148.981 27.028l-2.909-0.962c4.133 1.411 8.894 2.226 13.845 2.226 24.398 0 44.176-19.778 44.176-44.176 0-18.568-11.455-34.46-27.684-40.995l-0.297-0.106c-48.679-16.876-104.782-26.621-163.162-26.621-3.829 0-7.649 0.042-11.459 0.125l0.567-0.010zM625.532 416.635h-233.249c-24.398 0-44.176 19.778-44.176 44.176s19.778 44.176 44.176 44.176v0h233.249c24.398 0 44.176-19.778 44.176-44.176s-19.778-44.176-44.176-44.176v0zM625.532 260.252h-233.249c-24.398 0-44.176 19.778-44.176 44.176s19.778 44.176 44.176 44.176v0h233.249c24.398 0 44.176-19.778 44.176-44.176s-19.778-44.176-44.176-44.176v0zM508.908 182.502c-24.398 0-44.176 19.778-44.176 44.176v0 309.232c0 24.398 19.778 44.176 44.176 44.176s44.176-19.778 44.176-44.176v0-309.232c0-24.398-19.778-44.176-44.176-44.176v0zM512.442 490.851c-24.129 0.35-43.556 19.992-43.556 44.172 0 12.046 4.821 22.965 12.639 30.935l-0.007-0.007 132.528 133.412c8.027 8.027 19.116 12.992 31.365 12.992 24.498 0 44.357-19.859 44.357-44.357 0-12.249-4.965-23.338-12.992-31.365v0l-133.412-132.528c-7.881-8.038-18.797-13.075-30.89-13.252h-0.033zM512.442 490.851c-12.126 0.178-23.042 5.215-30.916 13.246l-133.419 133.419c-8.027 8.027-12.992 19.116-12.992 31.365 0 24.498 19.859 44.357 44.357 44.357 12.249 0 23.338-4.965 31.365-12.992v0l132.528-133.412c7.811-7.962 12.632-18.882 12.632-30.928 0-24.18-19.426-43.822-43.523-44.171h-0.033zM860.549 88.849c-24.398 0-44.176 19.778-44.176 44.176s19.778 44.176 44.176 44.176v0l155.5 14.136c0.883 0.062 1.913 0.097 2.952 0.097 23.052 0 42.061-17.31 44.737-39.641l0.021-0.214c0.101-1.12 0.159-2.423 0.159-3.74 0-22.898-17.421-41.727-39.733-43.955l-0.184-0.015-155.5-14.136zM860.549 88.849c-21.771 0.16-39.785 16.044-43.257 36.85l-0.036 0.258-22.088 152.849c-0.403 2.258-0.634 4.857-0.634 7.51 0 24.748 20.062 44.81 44.81 44.81 22.095 0 40.455-15.991 44.137-37.031l0.039-0.268 25.622-153.733c0.427-2.307 0.671-4.961 0.671-7.672 0-21.826-15.829-39.956-36.633-43.535l-0.262-0.037z" />
<glyph unicode="&#xe94b;" glyph-name="-32" horiz-adv-x="744" d="M139.787 75.787h278.746c0 0.046 0 0.101 0 0.155 0 16.401 2.112 32.309 6.079 47.466l-0.289-1.301h-284.536v-46.32zM651.787-64v93.467h92.64v92.64h-92.64v93.467h-93.467v-92.64h-92.64v-93.467h92.64v-92.64zM605.467 261.893h-465.68v-46.32h341.609c32.49 28.76 75.47 46.321 122.552 46.321 0.243 0 0.486 0 0.729-0.001h-0.038zM139.787 680.426h465.68v-46.32h-465.68v46.32zM139.787 400.853h465.68v-46.32h-465.68v47.147zM744.426 754.869l-206.785 205.131h-515.309c-0.005 0-0.010 0-0.015 0-12.334 0-22.333-9.999-22.333-22.333 0-0.291 0.006-0.58 0.017-0.869l-0.001 0.042v-977.68c-0.010-0.247-0.015-0.536-0.015-0.827 0-12.334 9.999-22.333 22.333-22.333 0.005 0 0.011 0 0.016 0h459.062c-14.892 13.179-27.532 28.453-37.571 45.446l-0.478 0.874h-397.027v931.36h465.68v-139.787c-0.005-0.248-0.008-0.541-0.008-0.835 0-25.125 20.368-45.493 45.493-45.493 0.294 0 0.586 0.003 0.879 0.008l-0.044-0.001h139.787v-490.494c17.867-10.517 33.141-23.157 46.148-37.85l0.172-0.198v555.838zM139.787 820.213h278.746v-46.32h-278.746v46.32zM139.787 540.64h465.68v-46.32h-465.68v46.32z" />
<glyph unicode="&#xe94c;" glyph-name="-33" horiz-adv-x="972" d="M289.215 802.025c15.66 0 28.354 12.695 28.354 28.354v103.696c0 15.66-12.695 28.354-28.354 28.354s-28.354-12.695-28.354-28.354v0-103.696c0-15.66 12.695-28.354 28.354-28.354v0zM678.886 802.025c15.66 0 28.354 12.695 28.354 28.354v103.696c0 16.331-13.239 29.57-29.57 29.57s-29.57-13.239-29.57-29.57v0-103.696c0-15.66 12.695-28.354 28.354-28.354v0zM378.329 853.063h214.684c15.66 0 28.354 12.695 28.354 28.354s-12.695 28.354-28.354 28.354h-214.684c-15.66 0-28.354-12.695-28.354-28.354s12.695-28.354 28.354-28.354v0zM172.557 393.722h622.987c14.54 3.398 25.205 16.251 25.205 31.595s-10.664 28.197-24.985 31.552l-0.219 0.043h-622.987c-14.54-3.398-25.205-16.251-25.205-31.595s10.664-28.197 24.985-31.552l0.219-0.043zM845.772 911.392h-81.013c-14.727-2.479-25.807-15.136-25.807-30.38s11.080-27.9 25.626-30.355l0.181-0.025h81.013c35.794 0 64.81-29.016 64.81-64.81v-120.709h-847.392v119.899c0 35.794 29.016 64.81 64.81 64.81h72.911c14.727 2.479 25.807 15.136 25.807 30.38s-11.080 27.9-25.626 30.355l-0.181 0.025h-74.532c-0.001 0-0.002 0-0.003 0-69.513 0-125.918-56.121-126.377-125.526v-723.487c0-69.35 56.219-125.57 125.57-125.57v0h720.203c69.798 0 126.38 56.582 126.38 126.38v0 722.633c0 69.798-56.582 126.38-126.38 126.38v0zM60.759 602.734h848.203v-541.165c0-35.794-29.016-64.81-64.81-64.81v0h-718.582c-36.241 0-65.62 29.379-65.62 65.62v0 540.354zM172.557 169.316h622.987c8.144 0.117 15.391 3.857 20.217 9.677l0.036 0.044c5.040 5.898 8.107 13.613 8.107 22.045 0 0.225-0.002 0.449-0.007 0.672l0.001-0.033c0.029 0.496 0.046 1.077 0.046 1.662 0 16.001-12.537 29.073-28.324 29.93l-0.076 0.003h-622.987c-14.54-3.398-25.205-16.251-25.205-31.595s10.664-28.197 24.985-31.552l0.219-0.043z" />
<glyph unicode="&#xe94d;" glyph-name="-34" horiz-adv-x="1023" d="M591.281 447.489l389.754-393.846c33.758-33.758 55.241-67.516 21.483-102.298s-67.516-12.276-102.298 21.483l-380.547 402.030-399.984-401.007c-33.758-33.758-67.516-55.241-102.298-21.483s-12.276 67.516 21.483 102.298l391.8 392.823-389.754 388.731c-33.758 33.758-55.241 67.516-21.483 102.298s67.516 12.276 102.298-21.483l396.915-382.593 385.662 385.662c33.758 33.758 67.516 55.241 102.298 21.483s8.184-67.516-25.574-102.298z" />
<glyph unicode="&#xe94e;" glyph-name="oa_2" d="M512-64c-282.77 0-512 229.23-512 512s229.23 512 512 512v0c17.673 0 32-14.327 32-32s-14.327-32-32-32v0c-247.424 0-448-200.576-448-448s200.576-448 448-448c247.424 0 448 200.576 448 448v0c0.002 0.552 0.004 1.205 0.004 1.859 0 23.964-1.863 47.493-5.452 70.45l0.328-2.549c-0.228 1.443-0.358 3.106-0.358 4.8 0 17.871 14.487 32.358 32.358 32.358 16.177 0 29.581-11.871 31.977-27.377l0.023-0.181c3.938-23.855 6.188-51.345 6.188-79.361 0-282.77-229.23-512-512-512-0.375 0-0.751 0-1.126 0.001h0.058zM672 480h-320c-17.673 0-32 14.327-32 32s14.327 32 32 32v0h320c17.673 0 32-14.327 32-32s-14.327-32-32-32v0zM672 352h-320c-17.673 0-32 14.327-32 32s14.327 32 32 32v0h320c17.673 0 32-14.327 32-32s-14.327-32-32-32v0zM512 224c-17.673 0-32 14.327-32 32v0 256c0 17.673 14.327 32 32 32s32-14.327 32-32v0-256c0-17.673-14.327-32-32-32v0zM512 480c-10.433 0-19.7 4.993-25.542 12.72l-0.058 0.080-96 128c-3.996 5.281-6.4 11.96-6.4 19.2 0 17.673 14.327 32 32 32 10.433 0 19.7-4.993 25.542-12.72l0.058-0.080 70.4-94.080 70.4 94.080c5.9 7.807 15.167 12.8 25.6 12.8 17.673 0 32-14.327 32-32 0-7.24-2.404-13.919-6.458-19.28l0.058 0.080-96-128c-5.9-7.807-15.167-12.8-25.6-12.8v0zM960 736h-256c-17.673 0-32 14.327-32 32s14.327 32 32 32v0h256c17.673 0 32-14.327 32-32s-14.327-32-32-32v0zM832 608c-17.673 0-32 14.327-32 32v0 256c0 17.673 14.327 32 32 32s32-14.327 32-32v0-256c0-17.673-14.327-32-32-32v0z" />
</font>
</defs>
</svg>
